<svg aria-hidden="true" style="position: absolute; width: 0; height: 0; overflow: hidden;" version="1.1" xmlns="http://www.w3.org/2000/svg" xmlns:xlink="http://www.w3.org/1999/xlink">
<defs>
<symbol id="icon-free-icon-payment-day-1094770-2" viewBox="0 0 32 32">
<path d="M3.072 1.088c-0.576 0.64-1.536 1.536-2.048 1.984-0.832 0.704-1.024 2.624-1.024 12.16 0 8 0.256 11.648 0.768 12.16s3.008 0.768 7.104 0.768c5.824 0 6.464 0.128 8.512 1.664 6.080 4.672 14.592 1.088 15.488-6.464 0.192-2.24-0.064-3.456-1.408-5.824-1.408-2.56-1.664-3.776-1.664-8.32 0-4.032-0.256-5.504-1.024-6.144-0.512-0.448-1.472-1.344-2.048-1.984-1.28-1.344-2.624-1.408-3.072-0.128-0.576 1.408-15.936 1.408-16.512 0-0.448-1.28-1.792-1.216-3.072 0.128zM4.928 3.648c-0.192 0.64-0.32 0.256-0.32-0.768 0-1.088 0.128-1.536 0.32-1.152 0.128 0.448 0.128 1.344 0 1.92zM24.128 3.648c-0.192 0.64-0.32 0.256-0.32-0.768 0-1.088 0.128-1.536 0.32-1.152 0.128 0.448 0.128 1.344 0 1.92zM3.392 4.48c0.192 0.704 0.832 1.28 1.408 1.28s1.216-0.576 1.408-1.28c0.32-1.216 0.896-1.28 8.192-1.28s7.872 0.064 8.192 1.28c0.448 1.664 2.368 1.664 2.816 0 0.448-1.792 1.728-1.28 1.984 0.832l0.192 1.728h-26.304v-1.472c0-2.496 1.536-3.264 2.112-1.088zM27.52 10.816v3.2l-1.984-0.704c-2.56-0.896-6.464-0.32-8.768 1.344-3.392 2.368-4.608 6.784-3.264 11.584 0.192 0.768-0.64 1.024-4.544 1.152-8.192 0.32-7.68 1.024-7.68-10.112v-9.6h26.24v3.136zM28.224 16.576c2.24 2.24 2.496 2.816 2.496 5.824s-0.256 3.584-2.496 5.824c-2.24 2.24-2.816 2.496-5.824 2.496s-3.584-0.256-5.824-2.496c-2.24-2.24-2.496-2.816-2.496-5.824s0.256-3.584 2.496-5.824c2.24-2.24 2.816-2.496 5.824-2.496s3.584 0.256 5.824 2.496z"></path>
<path d="M3.392 9.408c-1.152 0.448-1.152 14.976-0.064 16.064 0.448 0.448 2.496 0.768 4.608 0.768h3.904l-0.128-4.608c-0.064-3.648 0.128-4.8 0.96-5.44 1.024-0.704 1.024-0.768 0-0.832-0.64 0-1.152-0.448-1.152-0.96 0-1.152 2.304-1.28 2.752-0.192 0.256 0.64 0.384 0.64 0.384 0 0.064-0.384 0.512-0.768 1.024-0.768s0.96-0.32 0.96-0.64c0-0.384-0.448-0.64-0.96-0.64s-0.96-0.448-0.96-0.96c0-1.408 3.008-1.216 3.392 0.128 0.256 1.088 0.32 1.088 0.384 0 0.064-1.28 2.304-1.536 2.88-0.32 0.32 0.64 0.448 0.64 0.768 0 0.512-1.088 2.816-0.96 2.816 0.192 0 0.512 0.32 0.96 0.704 0.96s0.576-0.64 0.448-1.472c-0.192-1.408-0.32-1.408-11.072-1.536-5.952-0.064-11.264 0.064-11.648 0.256zM6.4 11.2c0 0.512-0.576 0.96-1.28 0.96s-1.28-0.448-1.28-0.96c0-0.512 0.576-0.96 1.28-0.96s1.28 0.448 1.28 0.96zM10.24 11.2c0 0.512-0.576 0.96-1.28 0.96s-1.28-0.448-1.28-0.96c0-0.512 0.576-0.96 1.28-0.96s1.28 0.448 1.28 0.96zM14.080 11.2c0 0.512-0.576 0.96-1.28 0.96s-1.28-0.448-1.28-0.96c0-0.512 0.576-0.96 1.28-0.96s1.28 0.448 1.28 0.96zM6.4 14.4c0 0.512-0.576 0.96-1.28 0.96s-1.28-0.448-1.28-0.96c0-0.512 0.576-0.96 1.28-0.96s1.28 0.448 1.28 0.96zM10.24 14.4c0 0.512-0.576 0.96-1.28 0.96s-1.28-0.448-1.28-0.96c0-0.512 0.576-0.96 1.28-0.96s1.28 0.448 1.28 0.96zM6.4 17.6c0 0.512-0.576 0.96-1.28 0.96s-1.28-0.448-1.28-0.96c0-0.512 0.576-0.96 1.28-0.96s1.28 0.448 1.28 0.96zM10.24 17.6c0 0.512-0.576 0.96-1.28 0.96s-1.28-0.448-1.28-0.96c0-0.512 0.576-0.96 1.28-0.96s1.28 0.448 1.28 0.96zM6.4 20.8c0 0.512-0.576 0.96-1.28 0.96s-1.28-0.448-1.28-0.96c0-0.512 0.576-0.96 1.28-0.96s1.28 0.448 1.28 0.96zM10.24 20.8c0 0.512-0.576 0.96-1.28 0.96s-1.28-0.448-1.28-0.96c0-0.512 0.576-0.96 1.28-0.96s1.28 0.448 1.28 0.96zM6.4 24c0 0.512-0.576 0.96-1.28 0.96s-1.28-0.448-1.28-0.96c0-0.512 0.576-0.96 1.28-0.96s1.28 0.448 1.28 0.96zM10.24 24c0 0.512-0.576 0.96-1.28 0.96s-1.28-0.448-1.28-0.96c0-0.512 0.576-0.96 1.28-0.96s1.28 0.448 1.28 0.96z"></path>
<path d="M19.2 15.808c-6.080 3.136-5.312 11.712 1.28 13.696 3.392 1.024 6.848-0.64 8.576-4.16 1.088-2.304 1.152-2.752 0.32-5.056-1.6-4.544-6.144-6.528-10.176-4.48zM25.536 16.896c3.008 1.6 4.032 5.312 2.368 8.64-2.24 4.224-8.768 4.224-11.008 0-3.008-5.824 2.816-11.648 8.64-8.64z"></path>
<path d="M20.608 18.304c-1.728 1.216-1.792 2.496-0.128 3.904 0.704 0.64 1.28 1.856 1.28 2.752-0.064 1.472-0.128 1.536-0.896 0.448-0.96-1.216-1.664-1.408-1.664-0.448 0 0.32 0.704 1.088 1.6 1.664 1.472 0.96 1.728 0.96 3.2 0 1.92-1.28 2.048-2.56 0.32-4.032-0.704-0.64-1.28-1.856-1.28-2.752 0.064-1.536 0.064-1.536 0.96-0.384 0.512 0.704 1.152 1.024 1.408 0.768 0.512-0.448-1.984-2.944-2.944-2.944-0.256 0-1.088 0.448-1.856 1.024zM21.76 20.288c0 1.28-0.192 1.536-0.704 1.024-0.448-0.448-0.576-1.216-0.384-1.728 0.64-1.536 1.088-1.216 1.088 0.704zM24.32 24.64c0 0.512-0.256 1.088-0.64 1.28-0.384 0.256-0.64-0.32-0.64-1.28s0.256-1.536 0.64-1.28c0.384 0.192 0.64 0.768 0.64 1.28z"></path>
</symbol>
<symbol id="icon-search-mob" viewBox="0 0 32 32">
<path fill="#384685" style="fill: var(--color1, #384685)" d="M29 30c-0.256 0-0.512-0.098-0.707-0.293l-11.78-11.78c-0.391-0.391-0.391-1.023 0-1.414s1.023-0.391 1.414 0l11.78 11.78c0.391 0.391 0.391 1.024 0 1.414-0.195 0.195-0.451 0.293-0.707 0.293z"></path>
<path fill="#384685" style="fill: var(--color1, #384685)" d="M11.329 20.655c-2.389 0-4.778-0.91-6.597-2.728-3.638-3.638-3.638-9.556 0-13.194 1.762-1.762 4.104-2.733 6.597-2.733s4.836 0.971 6.598 2.733c3.638 3.638 3.638 9.556 0 13.194-1.818 1.819-4.208 2.728-6.598 2.728zM11.329 4c-1.957 0-3.798 0.762-5.183 2.147-2.857 2.858-2.857 7.508 0 10.366s7.51 2.856 10.366 0c2.857-2.858 2.857-7.508 0-10.366-1.385-1.385-3.226-2.147-5.184-2.147z"></path>
</symbol>
<symbol id="icon-double-waredrope" viewBox="0 0 25 32">
<path fill="#384685" style="fill: var(--color1, #384685)" d="M12.88 28.979h-12.88v-28.979h12.88v28.979zM1.073 27.906h10.733v-26.832h-10.733v26.832z"></path>
<path fill="#384685" style="fill: var(--color1, #384685)" d="M24.686 28.979h-12.879v-28.979h12.879v28.979zM12.88 27.906h10.733v-26.832h-10.733v26.832z"></path>
<path fill="#384685" style="fill: var(--color1, #384685)" d="M12.88 28.979h-12.88v-5.366h12.88v5.366zM1.073 27.906h10.733v-3.22h-10.733v3.22z"></path>
<path fill="#384685" style="fill: var(--color1, #384685)" d="M24.686 28.979h-12.879v-5.366h12.879v5.366zM12.88 27.906h10.733v-3.22h-10.733v3.22z"></path>
<path fill="#384685" style="fill: var(--color1, #384685)" d="M12.88 24.686h-12.88v-5.367h12.88v5.367zM1.073 23.612h10.733v-3.22h-10.733v3.22z"></path>
<path fill="#384685" style="fill: var(--color1, #384685)" d="M24.686 24.686h-12.879v-5.367h12.879v5.367zM12.88 23.612h10.733v-3.22h-10.733v3.22z"></path>
<path fill="#384685" style="fill: var(--color1, #384685)" d="M10.733 10.733h-1.073v2.683h1.073v-2.683z"></path>
<path fill="#384685" style="fill: var(--color1, #384685)" d="M15.026 10.733h-1.073v2.683h1.073v-2.683z"></path>
<path fill="#384685" style="fill: var(--color1, #384685)" d="M23.612 31.125h-22.539v-3.22h22.539v3.22zM2.147 30.052h20.393v-1.073h-20.393v1.073z"></path>
<path fill="#384685" style="fill: var(--color1, #384685)" d="M19.319 21.466h-2.147v1.073h2.147v-1.073z"></path>
<path fill="#384685" style="fill: var(--color1, #384685)" d="M19.319 25.759h-2.147v1.073h2.147v-1.073z"></path>
<path fill="#384685" style="fill: var(--color1, #384685)" d="M7.513 25.759h-2.147v1.073h2.147v-1.073z"></path>
<path fill="#384685" style="fill: var(--color1, #384685)" d="M7.513 21.466h-2.147v1.073h2.147v-1.073z"></path>
</symbol>
<symbol id="icon-arrow-down" viewBox="0 0 32 32">
<path d="M9.805 12.195l6.195 6.195 6.195-6.195c0.061-0.064 0.135-0.114 0.216-0.149s0.169-0.053 0.257-0.054c0.089-0.001 0.176 0.016 0.258 0.050s0.156 0.083 0.219 0.146 0.112 0.137 0.146 0.219c0.034 0.082 0.050 0.17 0.050 0.258s-0.019 0.176-0.054 0.257-0.086 0.155-0.149 0.216l-6.667 6.667c-0.062 0.062-0.135 0.111-0.216 0.145s-0.168 0.051-0.255 0.051c-0.088 0-0.174-0.017-0.255-0.051s-0.154-0.083-0.216-0.145l-6.667-6.667c-0.121-0.126-0.189-0.294-0.187-0.469s0.072-0.342 0.195-0.466c0.124-0.124 0.291-0.194 0.466-0.195s0.343 0.066 0.469 0.187l0-0z"></path>
</symbol>
<symbol id="icon-logo-footer" viewBox="0 0 139 32">
<path fill="#ffd60a" style="fill: var(--color2, #ffd60a)" d="M29.659 17.171c0 8.19-6.639 14.829-14.829 14.829s-14.829-6.639-14.829-14.829c0-8.19 6.639-14.829 14.829-14.829s14.829 6.639 14.829 14.829z"></path>
<path fill="#fff" style="fill: var(--color3, #fff)" d="M18.068 20.566h-5.034l-1.241 3.629h-3.208l5.901-16.507h2.365l5.901 16.507h-3.372l-1.311-3.629zM13.854 17.99h3.512l-1.218-3.653-0.492-2.576h-0.117l-0.492 2.599-1.194 3.629zM24.097 12.488h2.224l0.351 1.405h0.094c0.406-0.593 0.882-1.030 1.428-1.311 0.562-0.281 1.241-0.421 2.037-0.421 1.467 0 2.568 0.468 3.301 1.405 0.734 0.921 1.1 2.412 1.1 4.472 0 0.999-0.117 1.904-0.351 2.716-0.234 0.796-0.585 1.475-1.054 2.037-0.453 0.562-1.015 0.991-1.686 1.288-0.656 0.297-1.413 0.445-2.271 0.445-0.484 0-0.882-0.039-1.194-0.117-0.312-0.062-0.624-0.172-0.937-0.328v4.8h-3.044v-16.39zM29.318 14.736c-0.593 0-1.061 0.148-1.405 0.445-0.328 0.297-0.585 0.741-0.773 1.335v4.87c0.219 0.172 0.453 0.312 0.702 0.421 0.265 0.094 0.609 0.14 1.030 0.14 0.874 0 1.53-0.304 1.967-0.913 0.437-0.624 0.656-1.647 0.656-3.067 0-1.030-0.172-1.826-0.515-2.388s-0.898-0.843-1.662-0.843zM40.605 19.348h-0.819v4.847h-3.044v-11.707h3.044v4.987l0.726-0.328 2.739-4.66h3.255l-2.833 4.449-1.194 0.89 1.311 0.913 3.161 5.456h-3.489l-2.857-4.847zM47.338 18.341c0-1.982 0.484-3.504 1.452-4.566 0.968-1.077 2.326-1.616 4.074-1.616 0.937 0 1.748 0.148 2.435 0.445s1.257 0.718 1.709 1.264c0.453 0.531 0.788 1.179 1.007 1.943 0.234 0.765 0.351 1.608 0.351 2.529 0 1.982-0.484 3.512-1.452 4.589-0.952 1.061-2.302 1.592-4.051 1.592-0.937 0-1.748-0.148-2.435-0.445s-1.264-0.71-1.733-1.241c-0.453-0.546-0.796-1.202-1.030-1.967-0.219-0.765-0.328-1.608-0.328-2.529zM50.476 18.341c0 0.515 0.047 0.991 0.141 1.428s0.234 0.82 0.421 1.147c0.187 0.328 0.429 0.585 0.726 0.773 0.312 0.172 0.679 0.258 1.1 0.258 0.796 0 1.389-0.289 1.779-0.866s0.585-1.491 0.585-2.739c0-1.077-0.179-1.943-0.539-2.599-0.359-0.671-0.968-1.007-1.826-1.007-0.749 0-1.335 0.281-1.756 0.843s-0.632 1.483-0.632 2.763zM73.261 15.696l0.351-3.255h-0.141l-1.007 2.622-3.489 6.111h-1.030l-3.676-6.135-1.030-2.599h-0.117l0.468 3.231v8.523h-3.044v-16.39h2.927l4.379 7.493 0.773 1.873h0.094l0.702-1.92 4.144-7.446h2.903v16.39h-3.208v-8.499zM88.57 23.188c-0.468 0.375-1.108 0.695-1.92 0.96-0.796 0.25-1.647 0.375-2.552 0.375-1.889 0-3.27-0.546-4.144-1.639-0.874-1.108-1.311-2.622-1.311-4.542 0-2.061 0.492-3.606 1.475-4.636s2.365-1.545 4.144-1.545c0.593 0 1.171 0.078 1.733 0.234s1.061 0.414 1.499 0.773c0.437 0.359 0.788 0.843 1.054 1.452s0.398 1.366 0.398 2.271c0 0.328-0.023 0.679-0.070 1.054-0.031 0.375-0.086 0.765-0.164 1.171h-7.024c0.047 0.983 0.297 1.725 0.749 2.224 0.468 0.5 1.218 0.749 2.248 0.749 0.64 0 1.21-0.094 1.709-0.281 0.515-0.203 0.905-0.406 1.171-0.609l1.007 1.99zM84.215 14.595c-0.796 0-1.389 0.242-1.779 0.726-0.375 0.468-0.601 1.101-0.679 1.897h4.355c0.062-0.843-0.070-1.491-0.398-1.943-0.312-0.453-0.812-0.679-1.499-0.679zM93.084 14.689c0.453-0.687 0.983-1.179 1.592-1.475 0.624-0.312 1.374-0.468 2.248-0.468 1.421 0 2.544 0.437 3.372 1.311 0.843 0.859 1.264 2.201 1.264 4.027 0 2.107-0.476 3.707-1.428 4.8s-2.295 1.639-4.027 1.639c-1.811 0-3.192-0.601-4.144-1.803s-1.428-3.075-1.428-5.62c0-1.342 0.078-2.49 0.234-3.442s0.375-1.756 0.656-2.412c0.297-0.656 0.64-1.179 1.030-1.569 0.406-0.39 0.851-0.695 1.335-0.913 0.499-0.234 1.030-0.398 1.592-0.492s1.155-0.172 1.779-0.234c0.812-0.078 1.506-0.172 2.084-0.281 0.578-0.125 1.007-0.32 1.288-0.585l0.117 2.716c-0.312 0.265-0.757 0.453-1.335 0.562-0.578 0.094-1.358 0.18-2.341 0.258-0.593 0.031-1.116 0.101-1.569 0.211s-0.843 0.304-1.171 0.585c-0.328 0.281-0.593 0.679-0.796 1.194-0.187 0.499-0.328 1.163-0.421 1.99h0.070zM93.669 18.482c0 0.999 0.195 1.826 0.585 2.482s0.991 0.983 1.803 0.983c0.843 0 1.444-0.297 1.803-0.89 0.375-0.593 0.562-1.452 0.562-2.576 0-1.015-0.172-1.795-0.515-2.341s-0.913-0.819-1.709-0.819c-0.859 0-1.499 0.281-1.92 0.843-0.406 0.562-0.609 1.335-0.609 2.318zM113.036 23.188c-0.468 0.375-1.108 0.695-1.92 0.96-0.796 0.25-1.647 0.375-2.552 0.375-1.889 0-3.27-0.546-4.144-1.639-0.874-1.108-1.311-2.622-1.311-4.542 0-2.061 0.492-3.606 1.475-4.636s2.365-1.545 4.144-1.545c0.593 0 1.171 0.078 1.733 0.234s1.061 0.414 1.499 0.773c0.437 0.359 0.788 0.843 1.054 1.452s0.398 1.366 0.398 2.271c0 0.328-0.023 0.679-0.070 1.054-0.031 0.375-0.086 0.765-0.164 1.171h-7.024c0.047 0.983 0.297 1.725 0.749 2.224 0.468 0.5 1.218 0.749 2.248 0.749 0.64 0 1.21-0.094 1.709-0.281 0.515-0.203 0.905-0.406 1.171-0.609l1.007 1.99zM108.681 14.595c-0.796 0-1.389 0.242-1.779 0.726-0.375 0.468-0.601 1.101-0.679 1.897h4.355c0.062-0.843-0.070-1.491-0.398-1.943-0.312-0.453-0.812-0.679-1.499-0.679zM121.677 15.181h-2.318c-0.094 1.108-0.203 2.209-0.328 3.301s-0.328 2.076-0.609 2.95c-0.265 0.859-0.632 1.561-1.1 2.107-0.468 0.531-1.077 0.796-1.826 0.796-0.905 0-1.545-0.117-1.92-0.351l0.375-2.529c0.25 0.094 0.484 0.14 0.702 0.14 0.312 0 0.585-0.133 0.82-0.398s0.429-0.741 0.585-1.428c0.172-0.687 0.304-1.616 0.398-2.786 0.109-1.186 0.187-2.685 0.234-4.496h8.031v11.707h-3.044v-9.015zM130.403 21.643c0.468 0.094 0.913 0.14 1.335 0.14 0.749 0 1.288-0.125 1.616-0.375 0.343-0.265 0.515-0.671 0.515-1.218 0-1.015-0.687-1.522-2.060-1.522-0.515 0-0.983 0.055-1.405 0.164v2.81zM130.403 16.656c0.375-0.062 0.749-0.101 1.124-0.117 0.39-0.031 0.741-0.047 1.054-0.047 0.812 0 1.499 0.094 2.060 0.281 0.562 0.172 1.015 0.421 1.358 0.749 0.359 0.328 0.617 0.718 0.773 1.171 0.156 0.437 0.234 0.913 0.234 1.428 0 1.421-0.421 2.482-1.264 3.184s-2.271 1.054-4.285 1.054c-0.89 0-1.662-0.016-2.318-0.047-0.64-0.031-1.233-0.070-1.779-0.117v-11.707h3.044v4.168z"></path>
<path fill="#fff" style="fill: var(--color3, #fff)" d="M8.585 5.463h14.049v2.341h-14.049v-2.341z"></path>
</symbol>
<symbol id="icon-mail" viewBox="0 0 43 32">
<path fill="#fff" style="fill: var(--color3, #fff)" d="M4.163 0c-2.309 0-4.163 1.942-4.163 4.276v21.609c0 2.334 1.853 4.292 4.163 4.292h34.341c2.31 0 4.163-1.959 4.163-4.292v-21.609c0-2.334-1.853-4.276-4.163-4.276h-34.341zM4.163 2.081h34.341c0.308 0 0.599 0.089 0.862 0.211l-16.748 15.902c-0.769 0.73-1.767 0.73-2.537 0l-16.78-15.902c0.263-0.123 0.554-0.211 0.862-0.211h0zM2.114 4.032l11.853 11.236-11.659 11.642c-0.146-0.303-0.228-0.65-0.228-1.024v-21.609c0-0.085 0.024-0.163 0.032-0.244l0.001-0.001zM40.553 4.032c0.008 0.081 0.032 0.159 0.032 0.244v21.609c0 0.369-0.086 0.708-0.228 1.008l-11.625-11.642 11.821-11.219zM27.219 16.698l11.382 11.399h-34.52l11.399-11.382 3.171 2.992c1.51 1.431 3.889 1.434 5.399 0l3.17-3.009z"></path>
</symbol>
<symbol id="icon-time" viewBox="0 0 32 32">
<path fill="#fff" style="fill: var(--color3, #fff)" d="M16 0c-4.243 0-8.313 1.686-11.314 4.686s-4.686 7.071-4.686 11.314c0 4.243 1.686 8.313 4.686 11.314s7.071 4.686 11.314 4.686c4.243 0 8.313-1.686 11.314-4.686s4.686-7.071 4.686-11.314c-0.005-4.242-1.692-8.309-4.691-11.309s-7.067-4.687-11.308-4.691l-0-0zM16 29.715c-3.637 0-7.126-1.445-9.697-4.017s-4.017-6.060-4.017-9.697c0-3.637 1.445-7.126 4.017-9.697s6.060-4.017 9.697-4.017 7.126 1.445 9.697 4.017c2.572 2.572 4.017 6.060 4.017 9.697-0.004 3.636-1.45 7.122-4.021 9.693s-6.057 4.017-9.694 4.021l0-0z"></path>
<path fill="#fff" style="fill: var(--color3, #fff)" d="M17.148 15.527v-9.812c0-0.408-0.218-0.786-0.571-0.99s-0.789-0.204-1.143 0c-0.354 0.204-0.571 0.581-0.571 0.99v10.286c0.001 0.15 0.031 0.298 0.088 0.436 0.057 0.14 0.141 0.266 0.248 0.373l5.714 5.714c0.29 0.28 0.707 0.387 1.096 0.28s0.693-0.411 0.8-0.8c0.107-0.389 0-0.806-0.28-1.096l-5.381-5.381z"></path>
</symbol>
<symbol id="icon-address" viewBox="0 0 32 32">
<path fill="#fff" style="fill: var(--color3, #fff)" d="M31.7 15.246l-14.946-14.934c-0.2-0.2-0.472-0.312-0.755-0.312s-0.555 0.112-0.755 0.312l-14.945 14.934c-0.262 0.271-0.361 0.66-0.262 1.023s0.384 0.647 0.747 0.747c0.364 0.1 0.753 0 1.024-0.262l1.38-1.379v15.558c0 0.283 0.112 0.554 0.313 0.754s0.472 0.312 0.755 0.312h23.486c0.283 0 0.555-0.112 0.755-0.312s0.313-0.471 0.313-0.754v-15.558l1.38 1.379c0.271 0.262 0.66 0.361 1.024 0.262s0.647-0.384 0.747-0.747c0.1-0.363 0-0.752-0.262-1.023v0zM12.797 29.867v-9.6c0-1.143 0.611-2.2 1.601-2.771s2.212-0.572 3.203 0c0.991 0.571 1.601 1.628 1.601 2.771v9.6h-6.405zM26.675 29.867h-5.338v-9.6c0-1.906-1.017-3.666-2.669-4.619s-3.686-0.953-5.338 0-2.669 2.713-2.669 4.619v9.6h-5.338v-16.625l10.675-10.667 10.675 10.667v16.625z"></path>
</symbol>
<symbol id="icon-pay-banking" viewBox="0 0 32 32">
<path d="M20.665 22.667c-0.177 0-0.346 0.070-0.471 0.195s-0.195 0.295-0.195 0.471v0.667h-13.333v-16h13.333v0.667c0 0.177 0.070 0.346 0.195 0.471s0.295 0.195 0.471 0.195c0.177 0 0.346-0.070 0.471-0.195s0.195-0.295 0.195-0.471v-4c0-0.884-0.351-1.732-0.976-2.357s-1.473-0.976-2.357-0.976h-9.333c-0.884 0-1.732 0.351-2.357 0.976s-0.976 1.473-0.976 2.357v22.667c0 0.884 0.351 1.732 0.976 2.357s1.473 0.976 2.357 0.976h9.333c0.884 0 1.732-0.351 2.357-0.976s0.976-1.473 0.976-2.357v-4c0-0.177-0.070-0.346-0.195-0.471s-0.295-0.195-0.471-0.195zM8.665 2.667h9.333c0.53 0 1.039 0.211 1.414 0.586s0.586 0.884 0.586 1.414v2h-13.333v-2c0-0.53 0.211-1.039 0.586-1.414s0.884-0.586 1.414-0.586zM17.999 29.333h-9.333c-0.53 0-1.039-0.211-1.414-0.586s-0.586-0.884-0.586-1.414v-2h13.333v2c0 0.53-0.211 1.039-0.586 1.414s-0.884 0.586-1.414 0.586z"></path>
<path d="M14 26.667h-1.333c-0.177 0-0.346 0.070-0.471 0.195s-0.195 0.295-0.195 0.471c0 0.177 0.070 0.346 0.195 0.471s0.295 0.195 0.471 0.195h1.333c0.177 0 0.346-0.070 0.471-0.195s0.195-0.295 0.195-0.471c0-0.177-0.070-0.346-0.195-0.471s-0.295-0.195-0.471-0.195z"></path>
<path d="M11.33 5.333h4c0.177 0 0.346-0.070 0.471-0.195s0.195-0.295 0.195-0.471c0-0.177-0.070-0.346-0.195-0.471s-0.295-0.195-0.471-0.195h-4c-0.177 0-0.346 0.070-0.471 0.195s-0.195 0.295-0.195 0.471c0 0.177 0.070 0.346 0.195 0.471s0.295 0.195 0.471 0.195z"></path>
<path d="M25.999 10.667h-10.667c-0.53 0-1.039 0.211-1.414 0.586s-0.586 0.884-0.586 1.414v6.667c0 0.53 0.211 1.039 0.586 1.414s0.884 0.586 1.414 0.586h10.667c0.53 0 1.039-0.211 1.414-0.586s0.586-0.884 0.586-1.414v-6.667c0-0.53-0.211-1.039-0.586-1.414s-0.884-0.586-1.414-0.586zM15.332 12h10.667c0.177 0 0.346 0.070 0.471 0.195s0.195 0.295 0.195 0.471v0.667h-12v-0.667c0-0.177 0.070-0.346 0.195-0.471s0.295-0.195 0.471-0.195zM25.999 20h-10.667c-0.177 0-0.346-0.070-0.471-0.195s-0.195-0.295-0.195-0.471v-4.667h12v4.667c0 0.177-0.070 0.346-0.195 0.471s-0.295 0.195-0.471 0.195z"></path>
<path d="M18 17.333h-1.333c-0.177 0-0.346 0.070-0.471 0.195s-0.195 0.295-0.195 0.471c0 0.177 0.070 0.346 0.195 0.471s0.295 0.195 0.471 0.195h1.333c0.177 0 0.346-0.070 0.471-0.195s0.195-0.295 0.195-0.471c0-0.177-0.070-0.346-0.195-0.471s-0.295-0.195-0.471-0.195z"></path>
</symbol>
<symbol id="icon-pay-cash" viewBox="0 0 32 32">
<path d="M19.333 20.667h-13.333c0-0.884-0.351-1.732-0.976-2.357s-1.473-0.976-2.357-0.976v-5.333c0.884 0 1.732-0.351 2.357-0.976s0.976-1.473 0.976-2.357h16c0 0.884 0.351 1.732 0.976 2.357s1.473 0.976 2.357 0.976v1.333c0 0.177 0.070 0.346 0.195 0.471s0.295 0.195 0.471 0.195c0.177 0 0.346-0.070 0.471-0.195s0.195-0.295 0.195-0.471v-5.333c0-0.177-0.070-0.346-0.195-0.471s-0.295-0.195-0.471-0.195h-24c-0.177 0-0.346 0.070-0.471 0.195s-0.195 0.295-0.195 0.471v13.333c0 0.177 0.070 0.346 0.195 0.471s0.295 0.195 0.471 0.195h17.333c0.177 0 0.346-0.070 0.471-0.195s0.195-0.295 0.195-0.471c0-0.177-0.070-0.346-0.195-0.471s-0.295-0.195-0.471-0.195zM25.333 10.667c-0.53 0-1.039-0.211-1.414-0.586s-0.586-0.884-0.586-1.414h2v2zM2.667 8.667h2c0 0.53-0.211 1.039-0.586 1.414s-0.884 0.586-1.414 0.586v-2zM2.667 18.667c0.53 0 1.039 0.211 1.414 0.586s0.586 0.884 0.586 1.414h-2v-2z"></path>
<path d="M26 15.333c-2.667 0-4.667 1.133-4.667 2.667v5.333c0 1.533 2 2.667 4.667 2.667s4.667-1.133 4.667-2.667v-5.333c0-1.533-2-2.667-4.667-2.667zM29.333 20.667c0 0.533-1.3 1.333-3.333 1.333s-3.333-0.8-3.333-1.333v-0.767c1.030 0.53 2.176 0.794 3.333 0.767 1.158 0.027 2.304-0.237 3.333-0.767v0.767zM26 16.667c2.033 0 3.333 0.8 3.333 1.333s-1.3 1.333-3.333 1.333c-2.033 0-3.333-0.8-3.333-1.333s1.3-1.333 3.333-1.333zM26 24.667c-2.033 0-3.333-0.8-3.333-1.333v-0.767c1.030 0.53 2.176 0.794 3.333 0.767 1.158 0.027 2.304-0.237 3.333-0.767v0.767c0 0.533-1.3 1.333-3.333 1.333z"></path>
<path d="M10.667 14.667c0 0.659 0.196 1.304 0.562 1.852s0.887 0.975 1.496 1.228c0.609 0.252 1.279 0.318 1.926 0.19s1.241-0.446 1.707-0.912c0.466-0.466 0.784-1.060 0.912-1.707s0.063-1.317-0.19-1.926c-0.252-0.609-0.68-1.13-1.228-1.496s-1.193-0.562-1.852-0.562c-0.884 0-1.732 0.351-2.357 0.976s-0.976 1.473-0.976 2.357zM16 14.667c0 0.396-0.117 0.782-0.337 1.111s-0.532 0.585-0.898 0.737c-0.366 0.151-0.768 0.191-1.156 0.114s-0.744-0.268-1.024-0.547c-0.28-0.28-0.47-0.636-0.547-1.024s-0.038-0.79 0.114-1.156c0.151-0.365 0.408-0.678 0.737-0.898s0.716-0.337 1.111-0.337c0.53 0 1.039 0.211 1.414 0.586s0.586 0.884 0.586 1.414z"></path>
</symbol>
<symbol id="icon-pay-card" viewBox="0 0 32 32">
<path d="M22.667 8.667h-17.333c-0.884 0-1.732 0.351-2.357 0.976s-0.976 1.473-0.976 2.357v12c0 0.438 0.086 0.871 0.254 1.276s0.413 0.772 0.723 1.081c0.31 0.31 0.677 0.555 1.081 0.723s0.838 0.254 1.276 0.254h17.333c0.438 0 0.871-0.086 1.276-0.254s0.772-0.413 1.081-0.723c0.31-0.309 0.555-0.677 0.723-1.081s0.254-0.838 0.254-1.276v-12c0-0.884-0.351-1.732-0.976-2.357s-1.473-0.976-2.357-0.976zM5.333 10h17.333c0.53 0 1.039 0.211 1.414 0.586s0.586 0.884 0.586 1.414v0.667h-21.333v-0.667c0-0.53 0.211-1.039 0.586-1.414s0.884-0.586 1.414-0.586zM22.667 26h-17.333c-0.53 0-1.039-0.211-1.414-0.586s-0.586-0.884-0.586-1.414v-10h21.333v10c0 0.53-0.211 1.039-0.586 1.414s-0.884 0.586-1.414 0.586z"></path>
<path d="M9.333 19.333h-2.667c-0.177 0-0.346 0.070-0.471 0.195s-0.195 0.295-0.195 0.471v2.667c0 0.177 0.070 0.346 0.195 0.471s0.295 0.195 0.471 0.195h2.667c0.177 0 0.346-0.070 0.471-0.195s0.195-0.295 0.195-0.471v-2.667c0-0.177-0.070-0.346-0.195-0.471s-0.295-0.195-0.471-0.195zM8.667 22h-1.333v-1.333h1.333v1.333z"></path>
<path d="M26.667 4.667h-17.333c-0.582 0.003-1.152 0.159-1.655 0.452s-0.921 0.711-1.211 1.215c-0.047 0.074-0.079 0.156-0.092 0.242s-0.010 0.174 0.012 0.259c0.022 0.084 0.061 0.164 0.115 0.232s0.122 0.125 0.198 0.167c0.074 0.047 0.156 0.079 0.242 0.092s0.174 0.010 0.259-0.012c0.084-0.022 0.164-0.061 0.232-0.115s0.125-0.122 0.167-0.198c0.176-0.304 0.428-0.557 0.733-0.732s0.649-0.268 1.001-0.268h17.333c0.53 0 1.039 0.211 1.414 0.586s0.586 0.884 0.586 1.414v12c0 0.351-0.092 0.696-0.268 1.001s-0.428 0.557-0.732 0.733c-0.077 0.041-0.144 0.098-0.198 0.167s-0.093 0.148-0.115 0.232c-0.022 0.085-0.026 0.173-0.012 0.259s0.045 0.169 0.092 0.242c0.041 0.077 0.098 0.144 0.167 0.198s0.148 0.093 0.232 0.115c0.085 0.022 0.173 0.026 0.259 0.012s0.169-0.045 0.242-0.092c0.504-0.291 0.923-0.708 1.215-1.211s0.448-1.074 0.452-1.655v-12c0-0.884-0.351-1.732-0.976-2.357s-1.473-0.976-2.357-0.976z"></path>
</symbol>
<symbol id="icon-minus" viewBox="0 0 240 32">
<path d="M13.334 26.668c-7.363 0-13.334-5.968-13.334-13.334 0-7.363 5.971-13.334 13.334-13.334h213.332c7.363 0 13.334 5.971 13.334 13.334s-5.971 13.334-13.334 13.334h-213.332z"></path>
</symbol>
<symbol id="icon-plus" viewBox="0 0 32 32">
<path d="M16 0c-1.163 0-2.105 0.942-2.105 2.105v11.789h-11.789c-1.163 0-2.105 0.943-2.105 2.105s0.942 2.105 2.105 2.105h11.789v11.79c0 1.163 0.943 2.105 2.105 2.105s2.105-0.942 2.105-2.105v-11.79h11.79c1.163 0 2.105-0.942 2.105-2.105s-0.942-2.105-2.105-2.105h-11.79v-11.789c0-1.163-0.942-2.105-2.105-2.105z"></path>
</symbol>
<symbol id="icon-delivery-cabinet" viewBox="0 0 58 32">
<path fill="#fff" style="fill: var(--color3, #fff)" d="M4.126 27.518h2.399c0.533 2.188 2.885 3.851 5.701 3.851s5.168-1.653 5.701-3.851h21.332c0.533 2.188 2.885 3.851 5.701 3.851s5.168-1.653 5.701-3.851h0.881c2.955 0 5.365-1.987 5.365-4.424v-2.704c0-0.755-0.243-1.481-0.684-2.131-0.035-0.067-0.081-0.124-0.128-0.182-0.047-0.067-0.093-0.134-0.139-0.201l-5.655-6.736c-1.008-1.195-2.654-1.911-4.415-1.911h-10.545v-5.828c0-1.873-1.854-3.402-4.125-3.402l-27.104 0c-2.271-0.009-4.114 1.51-4.114 3.383v20.734c0 1.872 1.854 3.401 4.125 3.401l0-0.001zM12.225 29.458c-1.935 0-3.5-1.29-3.5-2.886s1.565-2.886 3.5-2.886c1.923 0 3.488 1.29 3.5 2.876v0.010c0 1.586-1.576 2.886-3.5 2.886v0zM44.948 29.458c-1.923 0-3.5-1.29-3.5-2.886s1.565-2.886 3.5-2.886c1.923 0 3.488 1.29 3.5 2.876v0.019c0 1.576-1.565 2.876-3.5 2.876v0zM48.39 12.221l4.542 5.418h-7.335v-6.497h0.289c0.997-0 1.935 0.401 2.503 1.079zM43.28 11.141v7.453c0 0.525 0.521 0.955 1.159 0.955h9.965c0.116 0.268 0.185 0.554 0.185 0.841v2.704c0 1.386-1.367 2.513-3.048 2.513h-0.881c-0.545-2.188-2.885-3.831-5.701-3.831s-5.157 1.653-5.701 3.831h-4.137c0.127-0.296 0.209-0.611 0.209-0.946l0.001-13.52h7.949zM2.317 3.383c0-0.822 0.811-1.481 1.796-1.481h27.092c0.997 0 1.807 0.669 1.807 1.49v21.269c0 0.525-0.51 0.946-1.147 0.946h-13.94c-0.545-2.188-2.885-3.831-5.701-3.831s-5.157 1.653-5.701 3.831h-2.398c-0.997 0-1.808-0.669-1.808-1.491l0.001-20.734z"></path>
</symbol>
<symbol id="icon-reviews" viewBox="0 0 69 32">
<path d="M34.33 0.001c-0.040-0.002-0.080-0.001-0.12 0.002-0.468 0.032-0.872 0.362-1.026 0.836l-2.581 7.971-7.855 0.174c-0.496 0.009-0.933 0.356-1.086 0.863s0.009 1.063 0.405 1.384l6.263 5.096-2.273 8.078c-0.143 0.508 0.030 1.058 0.43 1.371s0.94 0.32 1.347 0.018l6.453-4.82 6.45 4.82c0.407 0.304 0.948 0.297 1.35-0.016s0.573-0.864 0.429-1.374l-2.273-8.078 6.261-5.096c0.396-0.321 0.559-0.877 0.405-1.384s-0.59-0.854-1.086-0.863l-7.86-0.173-2.576-7.972c-0.158-0.486-0.577-0.819-1.056-0.839v0zM34.286 5.066l1.747 5.392c0.16 0.491 0.587 0.824 1.072 0.836l5.321 0.118-4.237 3.45c-0.388 0.315-0.551 0.856-0.411 1.356l1.539 5.474-4.367-3.264c-0.4-0.299-0.931-0.299-1.331 0l-4.365 3.259 1.539-5.469c0.14-0.499-0.023-1.040-0.409-1.356l-4.237-3.45 5.314-0.118c0.487-0.009 0.917-0.343 1.079-0.836l1.746-5.392zM10.807 9.92c-0.512-0.020-0.976 0.32-1.144 0.839l-2.105 6.498-6.413 0.141c-0.497 0.009-0.935 0.356-1.089 0.863s0.010 1.064 0.407 1.385l5.113 4.154-1.86 6.587c-0.145 0.51 0.029 1.062 0.431 1.375s0.946 0.318 1.353 0.012l5.268-3.928 5.265 3.928c0.407 0.302 0.948 0.295 1.348-0.017s0.573-0.861 0.431-1.37l-1.857-6.587 5.115-4.154c0.397-0.321 0.561-0.877 0.407-1.385s-0.591-0.854-1.089-0.863l-6.416-0.142-2.107-6.497c-0.158-0.487-0.578-0.82-1.058-0.839h-0zM57.847 9.92c-0.512-0.020-0.975 0.32-1.143 0.839l-2.107 6.498-6.413 0.141c-0.497 0.010-0.934 0.357-1.087 0.864s0.011 1.063 0.408 1.384l5.11 4.154-1.857 6.587c-0.145 0.51 0.028 1.062 0.43 1.375s0.946 0.318 1.353 0.012l5.265-3.928 5.265 3.928c0.407 0.302 0.948 0.295 1.348-0.017s0.573-0.861 0.431-1.37l-1.858-6.587 5.115-4.154c0.397-0.321 0.561-0.876 0.407-1.384s-0.589-0.854-1.087-0.864l-6.418-0.142-2.106-6.497c-0.157-0.486-0.577-0.819-1.056-0.839h-0zM10.765 14.977l1.273 3.925c0.161 0.491 0.589 0.823 1.074 0.834l3.874 0.086-3.087 2.512c-0.388 0.316-0.551 0.857-0.411 1.356l1.121 3.976-3.176-2.37c-0.401-0.3-0.933-0.3-1.333 0l-3.181 2.375 1.125-3.981c0.139-0.5-0.025-1.041-0.414-1.356l-3.089-2.512 3.874-0.086c0.487-0.009 0.917-0.342 1.079-0.834l1.271-3.925zM57.805 14.977l1.273 3.925c0.162 0.491 0.589 0.823 1.075 0.834l3.874 0.086-3.087 2.512c-0.388 0.316-0.551 0.857-0.411 1.356l1.12 3.976-3.177-2.37c-0.4-0.299-0.932-0.299-1.333 0l-3.181 2.375 1.125-3.981h-0c0.14-0.5-0.025-1.041-0.413-1.356l-3.089-2.512 3.874-0.086c0.487-0.009 0.917-0.342 1.079-0.834l1.271-3.925z"></path>
</symbol>
<symbol id="icon-star-grey" viewBox="0 0 34 32">
<path fill="#e2e2e2" style="fill: var(--color4, #e2e2e2)" d="M15.198 1.648c0.532-1.638 2.849-1.638 3.382 0l2.5 7.695c0.238 0.732 0.921 1.228 1.691 1.228h8.091c1.722 0 2.438 2.204 1.045 3.216l-6.546 4.756c-0.623 0.453-0.884 1.255-0.646 1.988l2.5 7.695c0.532 1.638-1.343 3-2.736 1.988l-6.545-4.756c-0.623-0.453-1.467-0.453-2.090 0l-6.545 4.756c-1.393 1.012-3.268-0.35-2.736-1.988l2.5-7.695c0.238-0.732-0.023-1.535-0.646-1.988l-6.545-4.756c-1.393-1.012-0.677-3.216 1.045-3.216h8.091c0.77 0 1.453-0.496 1.691-1.228l2.5-7.695z"></path>
</symbol>
<symbol id="icon-star-gold" viewBox="0 0 34 32">
<path fill="#fbd051" style="fill: var(--color5, #fbd051)" d="M15.198 1.648c0.532-1.638 2.849-1.638 3.382 0l2.5 7.695c0.238 0.732 0.921 1.228 1.691 1.228h8.091c1.722 0 2.438 2.204 1.045 3.216l-6.546 4.756c-0.623 0.453-0.884 1.255-0.646 1.988l2.5 7.695c0.532 1.638-1.343 3-2.736 1.988l-6.545-4.756c-0.623-0.453-1.467-0.453-2.090 0l-6.545 4.756c-1.393 1.012-3.268-0.35-2.736-1.988l2.5-7.695c0.238-0.732-0.023-1.535-0.646-1.988l-6.545-4.756c-1.393-1.012-0.677-3.216 1.045-3.216h8.091c0.77 0 1.453-0.496 1.691-1.228l2.5-7.695z"></path>
</symbol>
<symbol id="icon-menu" viewBox="0 0 40 32">
<path d="M2.909 0c-1.607 0-2.909 1.302-2.909 2.909s1.302 2.909 2.909 2.909h32.969c1.607 0 2.909-1.302 2.909-2.909s-1.302-2.909-2.909-2.909h-32.969zM2.909 13.091c-1.607 0-2.909 1.302-2.909 2.909s1.302 2.909 2.909 2.909h32.969c1.607 0 2.909-1.302 2.909-2.909s-1.302-2.909-2.909-2.909h-32.969zM2.909 26.182c-1.607 0-2.909 1.302-2.909 2.909s1.302 2.909 2.909 2.909h32.969c1.607 0 2.909-1.302 2.909-2.909s-1.302-2.909-2.909-2.909h-32.969z"></path>
</symbol>
<symbol id="icon-menu-arrow-left" viewBox="0 0 18 32">
<path d="M17.6 1.899c0-0.485-0.189-0.978-0.557-1.346-0.737-0.737-1.956-0.737-2.693 0l-13.793 13.793c-0.356 0.356-0.557 0.858-0.557 1.346 0 0.483 0.176 0.965 0.557 1.346l13.775 13.774c0.726 0.772 1.974 0.782 2.711 0.044s0.737-1.956 0-2.693l-0-0-12.471-12.446 12.472-12.472c0.369-0.369 0.557-0.861 0.557-1.346l-0 0z"></path>
</symbol>
<symbol id="icon-menu-close" viewBox="0 0 34 32">
<path fill="#564d4d" style="fill: var(--color6, #564d4d)" d="M31.486 29.13c1.581 1.583-0.798 3.911-2.358 2.358l-13.127-13.129-13.128 13.128c-0.337 0.337-0.757 0.505-1.178 0.505-1.357 0-2.318-1.721-1.178-2.861l13.128-13.128-13.128-13.128c-1.569-1.567 0.788-3.925 2.356-2.356l13.128 13.128 13.128-13.128c1.57-1.57 3.923 0.79 2.358 2.356l-13.129 13.128 13.128 13.128z"></path>
</symbol>
<symbol id="icon-menu-arrow-right" viewBox="0 0 19 32">
<path d="M0 30.065c0 0.495 0.192 0.997 0.568 1.372 0.751 0.751 1.993 0.751 2.744 0l14.056-14.056c0.363-0.363 0.568-0.875 0.568-1.372 0-0.493-0.179-0.983-0.568-1.372l-14.038-14.037c-0.74-0.786-2.012-0.796-2.763-0.045s-0.751 1.993 0 2.744l0 0 12.709 12.684-12.71 12.71c-0.376 0.376-0.568 0.878-0.568 1.372l0-0.001z"></path>
</symbol>
<symbol id="icon-map" viewBox="0 0 30 32">
<path fill="#384685" style="fill: var(--color1, #384685)" d="M10.36 0.002c-0.033 0.002-0.062 0.006-0.090 0.010l0.006-0.001c-0.042 0.005-0.076 0.011-0.11 0.019l0.007-0.002c-0.013 0.002-0.018 0.003-0.023 0.005l0.007-0.002c-0.038 0.009-0.068 0.018-0.097 0.028l0.008-0.002c-0.014 0.003-0.019 0.005-0.025 0.006l0.008-0.002c-0.010 0.003-0.011 0.004-0.013 0.005l0.007-0.003c-0.036 0.013-0.063 0.023-0.088 0.035l0.007-0.003c-0.017 0.007-0.027 0.011-0.036 0.015l0.007-0.003c-0.029 0.014-0.052 0.025-0.074 0.038l0.006-0.003c-0.018 0.009-0.029 0.015-0.040 0.022l0.006-0.003c-0.023 0.014-0.040 0.025-0.058 0.037l0.004-0.002c-0.019 0.013-0.034 0.023-0.050 0.034l0.003-0.002-0.007 0.005c-0.006 0.005-0.009 0.006-0.011 0.009l0.003-0.002-9.251 6.846c-0.283 0.211-0.463 0.542-0.464 0.914v22.857c0 0.631 0.519 1.143 1.159 1.143 0.262 0 0.504-0.086 0.697-0.23l-0.003 0.002 8.572-6.343 8.572 6.343c0.017 0.013 0.039 0.027 0.061 0.041l0.005 0.003c-0.001-0.001 0 0 0.002 0.001l0.003 0.002c0.019 0.013 0.046 0.027 0.071 0.041l0.006 0.003c0.005 0.003 0.015 0.009 0.026 0.014l0.006 0.003c0.013 0.007 0.034 0.016 0.054 0.025l0.007 0.003c0.009 0.005 0.026 0.011 0.043 0.018l0.008 0.003c0.005 0.002 0.019 0.007 0.032 0.011l0.008 0.002c0.015 0.006 0.040 0.014 0.064 0.021l0.008 0.002c0.011 0.003 0.031 0.007 0.052 0.011l0.007 0.001c0.006 0.002 0.020 0.005 0.034 0.007l0.007 0.001c0.022 0.004 0.052 0.007 0.082 0.010l0.004 0.001c0.006 0.001 0.017 0.001 0.027 0.002h0.003c0.016 0.001 0.036 0.002 0.056 0.002h0.026c0.020 0 0.040-0.001 0.060-0.002h-0.003c0.014-0.002 0.023-0.003 0.033-0.004l-0.006 0.001c0.028-0.002 0.054-0.004 0.078-0.007l-0.006 0.001c0.025-0.004 0.045-0.007 0.063-0.011l-0.007 0.001c0.027-0.005 0.047-0.009 0.067-0.014l-0.008 0.002c0.023-0.006 0.038-0.011 0.053-0.016l-0.008 0.002c0.031-0.009 0.055-0.016 0.077-0.023l-0.008 0.002c0.023-0.008 0.039-0.014 0.054-0.021l-0.007 0.003c0.025-0.010 0.043-0.017 0.060-0.025l-0.007 0.003c0.025-0.012 0.043-0.021 0.060-0.031l-0.006 0.003c0.027-0.014 0.049-0.026 0.070-0.039l-0.005 0.003c0.011-0.007 0.018-0.013 0.026-0.018l-0.003 0.002c0.025-0.015 0.044-0.028 0.064-0.041l-0.003 0.002 9.266-6.858c0.283-0.211 0.464-0.542 0.464-0.915v-22.857c-0.001-0.631-0.519-1.142-1.159-1.142-0.012 0-0.023 0-0.035 0.001h0.002c-0.249 0.007-0.479 0.092-0.664 0.23l0.003-0.002-8.572 6.342-8.572-6.342c-0.006-0.005-0.016-0.011-0.026-0.017l-0.005-0.003c-0.014-0.010-0.030-0.022-0.049-0.033l-0.005-0.003c-0.010-0.007-0.026-0.016-0.042-0.025l-0.006-0.003c-0.012-0.007-0.030-0.017-0.049-0.026l-0.006-0.003c-0.005-0.002-0.017-0.008-0.029-0.013l-0.007-0.003c-0.017-0.009-0.043-0.019-0.068-0.029l-0.008-0.003c0.006 0.002 0.004 0.001 0.002 0.001l-0.007-0.003c0.001 0-0.005-0.002-0.012-0.003l-0.008-0.002c-0.017-0.006-0.043-0.014-0.069-0.022l-0.008-0.002c-0.016-0.005-0.042-0.010-0.066-0.015l-0.007-0.001c0 0-0.007-0.002-0.015-0.003l-0.007-0.001c0.006 0.001 0.003 0.001 0.002 0l-0.007-0.001c-0.024-0.004-0.056-0.007-0.088-0.010h-0.004c0.001 0-0.005-0.001-0.011-0.002l-0.006-0.001h-0.008c-0.003-0.001-0.011-0.001-0.019-0.002l-0.005-0.001c-0.013-0.001-0.027-0.001-0.042-0.001s-0.029 0-0.044 0.001h-0.029l-0.001 0.001zM11.583 3.429l6.951 5.143v19.999l-6.951-5.142v-19.999zM9.267 3.43v19.998l-6.951 5.143v-19.998l6.951-5.143zM27.8 3.43v19.998l-6.951 5.143v-19.998l6.951-5.143z"></path>
</symbol>
<symbol id="icon-double-sofa" viewBox="0 0 58 32">
<path fill="#384685" style="fill: var(--color1, #384685)" d="M7 32h-4c-0.796 0-1.559-0.316-2.121-0.879s-0.879-1.326-0.879-2.121v-18c0-0.796 0.316-1.559 0.879-2.121s1.326-0.879 2.121-0.879h4c0.796 0 1.559 0.316 2.121 0.879s0.879 1.326 0.879 2.121v18c0 0.796-0.316 1.559-0.879 2.121s-1.326 0.879-2.121 0.879zM3 10c-0.265 0-0.52 0.105-0.707 0.293s-0.293 0.442-0.293 0.707v18c0 0.265 0.105 0.52 0.293 0.707s0.442 0.293 0.707 0.293h4c0.265 0 0.52-0.105 0.707-0.293s0.293-0.442 0.293-0.707v-18c0-0.265-0.105-0.52-0.293-0.707s-0.442-0.293-0.707-0.293h-4z"></path>
<path fill="#384685" style="fill: var(--color1, #384685)" d="M55 32h-4c-0.796 0-1.559-0.316-2.121-0.879s-0.879-1.326-0.879-2.121v-18c0-0.796 0.316-1.559 0.879-2.121s1.326-0.879 2.121-0.879h4c0.796 0 1.559 0.316 2.121 0.879s0.879 1.326 0.879 2.121v18c0 0.796-0.316 1.559-0.879 2.121s-1.326 0.879-2.121 0.879zM51 10c-0.265 0-0.52 0.105-0.707 0.293s-0.293 0.442-0.293 0.707v18c0 0.265 0.105 0.52 0.293 0.707s0.442 0.293 0.707 0.293h4c0.265 0 0.52-0.105 0.707-0.293s0.293-0.442 0.293-0.707v-18c0-0.265-0.105-0.52-0.293-0.707s-0.442-0.293-0.707-0.293h-4z"></path>
<path fill="#384685" style="fill: var(--color1, #384685)" d="M47 32h-36c-0.796 0-1.559-0.316-2.121-0.879s-0.879-1.326-0.879-2.121v-4c0-0.796 0.316-1.559 0.879-2.121s1.326-0.879 2.121-0.879h36c0.796 0 1.559 0.316 2.121 0.879s0.879 1.326 0.879 2.121v4c0 0.796-0.316 1.559-0.879 2.121s-1.326 0.879-2.121 0.879zM11 24c-0.265 0-0.52 0.105-0.707 0.293s-0.293 0.442-0.293 0.707v4c0 0.265 0.105 0.52 0.293 0.707s0.442 0.293 0.707 0.293h36c0.265 0 0.52-0.105 0.707-0.293s0.293-0.442 0.293-0.707v-4c0-0.265-0.105-0.52-0.293-0.707s-0.442-0.293-0.707-0.293h-36z"></path>
<path fill="#384685" style="fill: var(--color1, #384685)" d="M30 24h-22v-4c0-1.326 0.527-2.598 1.464-3.535s2.209-1.464 3.536-1.464h12c1.326 0 2.598 0.527 3.535 1.464s1.465 2.209 1.465 3.535v4zM10 22h18v-2c0-0.796-0.316-1.559-0.879-2.121s-1.326-0.879-2.121-0.879h-12c-0.796 0-1.559 0.316-2.121 0.879s-0.879 1.326-0.879 2.121v2z"></path>
<path fill="#384685" style="fill: var(--color1, #384685)" d="M50 24h-22v-4c0-1.326 0.527-2.598 1.465-3.535s2.209-1.464 3.535-1.464h12c1.326 0 2.598 0.527 3.535 1.464s1.465 2.209 1.465 3.535v4zM30 22h18v-2c0-0.796-0.316-1.559-0.879-2.121s-1.326-0.879-2.121-0.879h-12c-0.796 0-1.559 0.316-2.121 0.879s-0.879 1.326-0.879 2.121v2z"></path>
<path fill="#384685" style="fill: var(--color1, #384685)" d="M30 20h-2c0-0.796-0.316-1.559-0.879-2.121s-1.326-0.879-2.121-0.879h-12c-0.796 0-1.559 0.316-2.121 0.879s-0.879 1.326-0.879 2.121h-2v-9c0-0.265-0.105-0.52-0.293-0.707s-0.442-0.293-0.707-0.293h-1v-5c0-1.326 0.527-2.598 1.464-3.536s2.209-1.464 3.536-1.464h14c1.326 0 2.598 0.527 3.535 1.464s1.465 2.209 1.465 3.536v15zM13 15h12c1.082 0 2.134 0.351 3 1v-11c0-0.796-0.316-1.559-0.879-2.121s-1.326-0.879-2.121-0.879h-14c-0.796 0-1.559 0.316-2.121 0.879s-0.879 1.326-0.879 2.121v3.17c0.585 0.207 1.092 0.59 1.45 1.097s0.55 1.112 0.55 1.733v5c0.866-0.649 1.918-1 3-1z"></path>
<path fill="#384685" style="fill: var(--color1, #384685)" d="M50 20h-2c0-0.796-0.316-1.559-0.879-2.121s-1.326-0.879-2.121-0.879h-12c-0.796 0-1.559 0.316-2.121 0.879s-0.879 1.326-0.879 2.121h-2v-15c0-1.326 0.527-2.598 1.465-3.536s2.209-1.464 3.536-1.464h14c1.326 0 2.598 0.527 3.535 1.464s1.465 2.209 1.465 3.536v5h-1c-0.265 0-0.52 0.105-0.707 0.293s-0.293 0.442-0.293 0.707v9zM33 15h12c1.082 0 2.135 0.351 3 1v-5c-0-0.621 0.192-1.226 0.55-1.733s0.865-0.89 1.45-1.097v-3.17c0-0.796-0.316-1.559-0.879-2.121s-1.326-0.879-2.121-0.879h-14c-0.796 0-1.559 0.316-2.121 0.879s-0.879 1.326-0.879 2.121v11c0.866-0.649 1.918-1 3-1z"></path>
<path fill="#384685" style="fill: var(--color1, #384685)" d="M30 19h-2v5h2v-5z"></path>
<path fill="#384685" style="fill: var(--color1, #384685)" d="M13.5 10c0.828 0 1.5-0.672 1.5-1.5s-0.672-1.5-1.5-1.5c-0.828 0-1.5 0.672-1.5 1.5s0.672 1.5 1.5 1.5z"></path>
<path fill="#384685" style="fill: var(--color1, #384685)" d="M22.5 10c0.828 0 1.5-0.672 1.5-1.5s-0.672-1.5-1.5-1.5c-0.828 0-1.5 0.672-1.5 1.5s0.672 1.5 1.5 1.5z"></path>
<path fill="#384685" style="fill: var(--color1, #384685)" d="M35.5 10c0.828 0 1.5-0.672 1.5-1.5s-0.672-1.5-1.5-1.5c-0.828 0-1.5 0.672-1.5 1.5s0.672 1.5 1.5 1.5z"></path>
<path fill="#384685" style="fill: var(--color1, #384685)" d="M44.5 10c0.828 0 1.5-0.672 1.5-1.5s-0.672-1.5-1.5-1.5c-0.828 0-1.5 0.672-1.5 1.5s0.672 1.5 1.5 1.5z"></path>
</symbol>
<symbol id="icon-dining-room" viewBox="0 0 32 32">
<path fill="#384685" style="fill: var(--color1, #384685)" d="M1.231 32h-1.231l0.018-1.378 1.335-6.006h9.108v7.385h-1.231v-6.154h-6.892l-1.108 4.978v1.175z"></path>
<path fill="#384685" style="fill: var(--color1, #384685)" d="M11.077 25.846h-9.846v-3.034l-1.163-7.735c-0.044-0.16-0.067-0.326-0.068-0.492v-1.046c0-0.365 0.109-0.722 0.312-1.025s0.491-0.54 0.828-0.679c0.337-0.14 0.708-0.176 1.066-0.105s0.687 0.247 0.945 0.505c0.346 0.346 0.541 0.815 0.542 1.305v1.003c-0.009 0.059-0.009 0.119 0 0.178v0.092l1.108 7.298 4.431 0.043c0.49 0 0.959 0.194 1.305 0.541s0.541 0.816 0.541 1.305v1.846zM2.462 24.615h7.385v-0.615c0-0.163-0.065-0.32-0.18-0.435s-0.272-0.18-0.435-0.18l-5.452-0.037-1.262-8.302c-0.044-0.165-0.066-0.334-0.068-0.505v-1.003c0-0.163-0.065-0.32-0.18-0.435s-0.272-0.18-0.435-0.18-0.32 0.065-0.435 0.18c-0.115 0.115-0.18 0.272-0.18 0.435v1.046c-0.006 0.062-0.002 0.124 0.012 0.185v0.092l1.231 7.908v1.846z"></path>
<path fill="#384685" style="fill: var(--color1, #384685)" d="M30.769 32v-1.175l-1.108-4.978h-6.892v6.154h-1.231v-7.385h9.108l1.354 6.142v1.243h-1.231z"></path>
<path fill="#384685" style="fill: var(--color1, #384685)" d="M30.769 25.846h-9.846v-1.846c0-0.49 0.194-0.959 0.541-1.305s0.816-0.541 1.305-0.541l4.4-0.031 1.126-7.385c0.020-0.057 0.030-0.118 0.031-0.178v-1.022c-0.001-0.243 0.045-0.484 0.137-0.709s0.227-0.43 0.398-0.602c0.259-0.254 0.587-0.426 0.944-0.495s0.725-0.030 1.060 0.109 0.621 0.375 0.823 0.677c0.202 0.302 0.31 0.656 0.312 1.019v1.046c-0.001 0.166-0.024 0.332-0.068 0.492l-1.163 7.735v3.034zM22.154 24.615h7.385v-1.938l1.231-7.908c0.009-0.059 0.009-0.119 0-0.178v-1.052c0-0.163-0.065-0.32-0.18-0.435s-0.272-0.18-0.435-0.18-0.32 0.065-0.435 0.18c-0.115 0.115-0.18 0.272-0.18 0.435v1.003c-0.001 0.17-0.024 0.34-0.068 0.505l-1.231 8.295-5.471 0.043c-0.163 0-0.32 0.065-0.435 0.18s-0.18 0.272-0.18 0.435v0.615z"></path>
<path fill="#384685" style="fill: var(--color1, #384685)" d="M24 20.923h-16v-3.692h16v3.692zM9.231 19.692h13.538v-1.231h-13.538v1.231z"></path>
<path fill="#384685" style="fill: var(--color1, #384685)" d="M26.462 17.231h-20.923v1.231h20.923v-1.231z"></path>
<path fill="#384685" style="fill: var(--color1, #384685)" d="M6.769 32h-1.231v-0.615c-0.036-1.983 0.385-3.947 1.231-5.742 0.874-1.859 1.295-3.898 1.231-5.951v-0.615h1.231v0.615c0.064 2.218-0.392 4.42-1.329 6.431-0.779 1.643-1.167 3.444-1.132 5.262v0.615z"></path>
<path fill="#384685" style="fill: var(--color1, #384685)" d="M26.462 32h-1.231v-0.615c0.035-1.818-0.353-3.619-1.132-5.262-0.938-2.011-1.393-4.213-1.329-6.431v-0.615h1.231v0.615c-0.065 2.053 0.357 4.092 1.231 5.951 0.845 1.794 1.267 3.759 1.231 5.742v0.615z"></path>
<path fill="#384685" style="fill: var(--color1, #384685)" d="M20.923 6.769h-9.846v-0.615c0-0.816 0.324-1.599 0.901-2.176s1.36-0.901 2.176-0.901h3.692c0.816 0 1.599 0.324 2.176 0.901s0.901 1.36 0.901 2.176v0.615zM12.412 5.538h7.175c-0.127-0.36-0.363-0.672-0.675-0.892s-0.684-0.339-1.066-0.338h-3.692c-0.243-0.001-0.485 0.047-0.71 0.14s-0.429 0.229-0.601 0.402c-0.191 0.196-0.338 0.431-0.431 0.689z"></path>
<path fill="#384685" style="fill: var(--color1, #384685)" d="M16 8.615c-0.49 0-0.959-0.194-1.305-0.541s-0.541-0.816-0.541-1.305c0-0.327 0.088-0.647 0.252-0.929l0.178-0.302h2.831l0.178 0.302c0.165 0.282 0.252 0.603 0.252 0.929 0 0.49-0.194 0.959-0.541 1.305s-0.816 0.541-1.305 0.541zM15.385 6.769c0 0.163 0.065 0.32 0.18 0.435s0.272 0.18 0.435 0.18c0.163 0 0.32-0.065 0.435-0.18s0.18-0.272 0.18-0.435h-1.231z"></path>
<path fill="#384685" style="fill: var(--color1, #384685)" d="M16.615 0h-1.231v4.308h1.231v-4.308z"></path>
</symbol>
<symbol id="icon-bunk-bed" viewBox="0 0 32 32">
<path fill="#384685" style="fill: var(--color1, #384685)" d="M6 29h-3v-26h3v26zM4 28h1v-24h-1v24z"></path>
<path fill="#384685" style="fill: var(--color1, #384685)" d="M29 29h-3v-26h3v26zM27 28h1v-24h-1v24z"></path>
<path fill="#384685" style="fill: var(--color1, #384685)" d="M27 26.5h-22v-4.5h22v4.5zM6 25.5h20v-2.5h-20v2.5z"></path>
<path fill="#384685" style="fill: var(--color1, #384685)" d="M10.605 23h-3.71c-0.503 0-0.985-0.2-1.34-0.555s-0.555-0.837-0.555-1.34v-0.21c0-0.503 0.2-0.985 0.555-1.34s0.837-0.555 1.34-0.555h3.71c0.503 0 0.985 0.2 1.34 0.555s0.555 0.837 0.555 1.34v0.21c0 0.503-0.2 0.985-0.555 1.34s-0.837 0.555-1.34 0.555zM6.895 20c-0.118 0-0.234 0.023-0.343 0.068s-0.207 0.111-0.29 0.194c-0.083 0.083-0.149 0.182-0.194 0.29s-0.068 0.225-0.068 0.343v0.21c0 0.237 0.094 0.465 0.262 0.633s0.396 0.262 0.633 0.262h3.71c0.237 0 0.465-0.094 0.633-0.262s0.262-0.395 0.262-0.633v-0.21c0-0.237-0.094-0.465-0.262-0.633s-0.396-0.262-0.633-0.262h-3.71z"></path>
<path fill="#384685" style="fill: var(--color1, #384685)" d="M27 23h-12.5v-4h9c0.928 0 1.818 0.369 2.475 1.025s1.025 1.547 1.025 2.475v0.5zM15.5 22h10.45c-0.115-0.565-0.422-1.072-0.869-1.437s-1.005-0.563-1.581-0.563h-8v2z"></path>
<path fill="#384685" style="fill: var(--color1, #384685)" d="M15.5 23h-4v-4.5h4v4.5zM12.5 22h2v-2.5h-2v2.5z"></path>
<path fill="#384685" style="fill: var(--color1, #384685)" d="M27 14h-22v-4.5h22v4.5zM6 13h20v-2.5h-20v2.5z"></path>
<path fill="#384685" style="fill: var(--color1, #384685)" d="M10.605 10.5h-3.71c-0.503 0-0.985-0.2-1.34-0.555s-0.555-0.837-0.555-1.34v-0.21c0-0.503 0.2-0.985 0.555-1.34s0.837-0.555 1.34-0.555h3.71c0.503 0 0.985 0.2 1.34 0.555s0.555 0.837 0.555 1.34v0.21c0 0.503-0.2 0.985-0.555 1.34s-0.837 0.555-1.34 0.555zM6.895 7.5c-0.118 0-0.234 0.023-0.343 0.068s-0.207 0.111-0.29 0.194c-0.083 0.083-0.149 0.182-0.194 0.29s-0.068 0.225-0.068 0.342v0.21c0 0.237 0.094 0.465 0.262 0.633s0.396 0.262 0.633 0.262h3.71c0.237 0 0.465-0.094 0.633-0.262s0.262-0.396 0.262-0.633v-0.21c0-0.237-0.094-0.465-0.262-0.633s-0.396-0.262-0.633-0.262h-3.71z"></path>
<path fill="#384685" style="fill: var(--color1, #384685)" d="M27 10.5h-12.5v-4h9c0.928 0 1.818 0.369 2.475 1.025s1.025 1.547 1.025 2.475v0.5zM15.5 9.5h10.45c-0.115-0.565-0.422-1.072-0.869-1.437s-1.005-0.563-1.581-0.563h-8v2z"></path>
<path fill="#384685" style="fill: var(--color1, #384685)" d="M15.5 10.5h-4v-4.5h4v4.5zM12.5 9.5h2v-2.5h-2v2.5z"></path>
</symbol>
<symbol id="icon-waredrope" viewBox="0 0 40 32">
<path fill="#384685" style="fill: var(--color1, #384685)" d="M13.171 31.194h-13.171v-31.194h13.171v31.194zM1.386 29.807h10.398v-28.421h-10.398v28.421z"></path>
<path fill="#384685" style="fill: var(--color1, #384685)" d="M28.421 31.194h-16.637v-31.194h16.637v31.194zM13.171 29.807h13.864v-28.421h-13.864v28.421z"></path>
<path fill="#384685" style="fill: var(--color1, #384685)" d="M25.648 17.33h-11.091v-14.557h11.091v14.557zM15.943 15.943h8.318v-11.784h-8.318v11.784z"></path>
<path fill="#384685" style="fill: var(--color1, #384685)" d="M28.421 31.194h-16.637v-6.932h16.637v6.932zM13.171 29.807h13.864v-4.159h-13.864v4.159z"></path>
<path fill="#384685" style="fill: var(--color1, #384685)" d="M28.421 25.648h-16.637v-6.932h16.637v6.932zM13.171 24.262h13.864v-4.159h-13.864v4.159z"></path>
<path fill="#384685" style="fill: var(--color1, #384685)" d="M40.205 31.194h-13.171v-31.194h13.171v31.194zM28.421 29.807h10.398v-28.421h-10.398v28.421z"></path>
<path fill="#384685" style="fill: var(--color1, #384685)" d="M21.489 21.489h-2.773v1.386h2.773v-1.386z"></path>
<path fill="#384685" style="fill: var(--color1, #384685)" d="M21.489 27.035h-2.773v1.386h2.773v-1.386z"></path>
<path fill="#384685" style="fill: var(--color1, #384685)" d="M20.997 6.443l-3.813 3.813 0.98 0.98 3.814-3.813-0.98-0.98z"></path>
<path fill="#384685" style="fill: var(--color1, #384685)" d="M21.001 10.599l-2.426 2.426 0.98 0.98 2.426-2.426-0.98-0.98z"></path>
<path fill="#384685" style="fill: var(--color1, #384685)" d="M10.398 14.557h-1.386v2.773h1.386v-2.773z"></path>
<path fill="#384685" style="fill: var(--color1, #384685)" d="M31.194 14.557h-1.386v2.773h1.386v-2.773z"></path>
</symbol>
<symbol id="icon-bedroom" viewBox="0 0 32 32">
<path fill="#384685" style="fill: var(--color1, #384685)" d="M30.5 27.5h-8v-8.5h8v8.5zM23.5 26.5h6v-6.5h-6v6.5z"></path>
<path fill="#384685" style="fill: var(--color1, #384685)" d="M30.5 22.5h-8v1h8v-1z"></path>
<path fill="#384685" style="fill: var(--color1, #384685)" d="M27.5 24h-2v1h2v-1z"></path>
<path fill="#384685" style="fill: var(--color1, #384685)" d="M27.5 20.5h-2v1h2v-1z"></path>
<path fill="#384685" style="fill: var(--color1, #384685)" d="M21.5 27.5h-1v-3.5h-18v3.5h-1v-4.5h20v4.5z"></path>
<path fill="#384685" style="fill: var(--color1, #384685)" d="M21.5 24h-20v-4h20v4zM2.5 23h18v-2h-18v2z"></path>
<path fill="#384685" style="fill: var(--color1, #384685)" d="M21 21h-19v-1.845c0.004-0.836 0.338-1.636 0.928-2.227s1.391-0.925 2.227-0.928h12.69c0.836 0.003 1.637 0.336 2.228 0.927s0.924 1.392 0.927 2.228v1.845zM3 20h17v-0.845c-0.001-0.571-0.229-1.119-0.633-1.522s-0.951-0.631-1.522-0.633h-12.69c-0.491 0.005-0.966 0.182-1.34 0.5-0.251 0.197-0.455 0.448-0.596 0.735s-0.216 0.601-0.219 0.92v0.845z"></path>
<path fill="#384685" style="fill: var(--color1, #384685)" d="M11 17h-6v-2.5c0-0.398 0.158-0.779 0.439-1.061s0.663-0.439 1.061-0.439h3c0.398 0 0.779 0.158 1.061 0.439s0.439 0.663 0.439 1.061v2.5zM6 16h4v-1.5c0-0.133-0.053-0.26-0.146-0.354s-0.221-0.146-0.354-0.146h-3c-0.133 0-0.26 0.053-0.354 0.146s-0.146 0.221-0.146 0.354v1.5z"></path>
<path fill="#384685" style="fill: var(--color1, #384685)" d="M18 17h-6v-2.5c0-0.398 0.158-0.779 0.439-1.061s0.663-0.439 1.061-0.439h3c0.398 0 0.779 0.158 1.061 0.439s0.439 0.663 0.439 1.061v2.5zM13 16h4v-1.5c0-0.133-0.053-0.26-0.146-0.354s-0.221-0.146-0.354-0.146h-3c-0.133 0-0.26 0.053-0.354 0.146s-0.146 0.221-0.146 0.354v1.5z"></path>
<path fill="#384685" style="fill: var(--color1, #384685)" d="M20 18.135l-0.815-0.635c-0.374-0.318-0.849-0.495-1.34-0.5h-12.69c-0.491 0.005-0.966 0.182-1.34 0.5l-0.815 0.635v-7.635h17v7.635zM5.155 16h12.69c0.395-0.001 0.787 0.074 1.155 0.22v-4.72h-15v4.72c0.368-0.146 0.76-0.221 1.155-0.22z"></path>
<path fill="#384685" style="fill: var(--color1, #384685)" d="M4 9.5h-1v2h1v-2z"></path>
<path fill="#384685" style="fill: var(--color1, #384685)" d="M20 9.5h-1v2h1v-2z"></path>
<path fill="#384685" style="fill: var(--color1, #384685)" d="M26.5 20c-0.53 0-1.039-0.211-1.414-0.586s-0.586-0.884-0.586-1.414v-0.38c-0-0.263 0.051-0.523 0.152-0.766s0.248-0.463 0.433-0.649l1.415-1.41 1.415 1.41c0.186 0.186 0.333 0.407 0.433 0.649s0.152 0.503 0.152 0.766v0.38c0 0.53-0.211 1.039-0.586 1.414s-0.884 0.586-1.414 0.586zM26.5 16.205l-0.705 0.71c-0.188 0.187-0.294 0.44-0.295 0.705v0.38c0 0.265 0.105 0.52 0.293 0.707s0.442 0.293 0.707 0.293 0.52-0.105 0.707-0.293c0.188-0.188 0.293-0.442 0.293-0.707v-0.38c-0.001-0.265-0.107-0.518-0.295-0.705l-0.705-0.71z"></path>
<path fill="#384685" style="fill: var(--color1, #384685)" d="M27 14h-1v2h1v-2z"></path>
<path fill="#384685" style="fill: var(--color1, #384685)" d="M29.565 15h-6.13l0.625-5h4.88l0.625 5zM24.565 14h3.87l-0.375-3h-3.12l-0.375 3z"></path>
</symbol>
<symbol id="icon-living-room" viewBox="0 0 32 32">
<path fill="#384685" style="fill: var(--color1, #384685)" d="M14.685 27.5h-0.87c-0.481-0.001-0.942-0.193-1.282-0.533s-0.532-0.801-0.533-1.282v-5.37c0.001-0.481 0.193-0.942 0.533-1.282s0.801-0.532 1.282-0.533h0.87c0.147 0.001 0.293 0.020 0.435 0.055 0.394 0.096 0.745 0.321 0.995 0.641s0.386 0.714 0.385 1.119v5.37c-0.001 0.481-0.193 0.942-0.533 1.282s-0.801 0.532-1.282 0.533zM13.815 19.5c-0.107 0-0.213 0.021-0.312 0.062s-0.189 0.101-0.264 0.177-0.136 0.166-0.177 0.264c-0.041 0.099-0.062 0.205-0.062 0.312v5.37c0 0.107 0.021 0.213 0.062 0.312s0.101 0.189 0.177 0.264 0.165 0.136 0.264 0.177c0.099 0.041 0.205 0.062 0.312 0.062h0.87c0.107 0 0.213-0.021 0.312-0.062s0.189-0.101 0.264-0.177c0.076-0.076 0.136-0.166 0.177-0.264s0.062-0.205 0.062-0.312v-5.37c-0-0.182-0.062-0.359-0.174-0.502s-0.269-0.245-0.446-0.288c-0.065-0.007-0.13-0.007-0.195 0l-0.87-0.025z"></path>
<path fill="#384685" style="fill: var(--color1, #384685)" d="M28.685 27.5h-0.87c-0.481-0.001-0.942-0.193-1.282-0.533s-0.532-0.801-0.533-1.282v-5.37c-0.001-0.406 0.134-0.8 0.385-1.119s0.601-0.545 0.995-0.641c0.142-0.035 0.288-0.054 0.435-0.055h0.87c0.481 0.001 0.942 0.193 1.282 0.533s0.532 0.801 0.533 1.282v5.37c-0.001 0.481-0.193 0.942-0.533 1.282s-0.801 0.532-1.282 0.533zM27.815 19.5c-0.065-0.007-0.13-0.007-0.195 0-0.181 0.044-0.341 0.15-0.454 0.298s-0.171 0.331-0.166 0.517v5.37c0 0.107 0.021 0.213 0.062 0.312s0.101 0.189 0.177 0.264 0.166 0.136 0.264 0.177c0.099 0.041 0.205 0.062 0.312 0.062h0.87c0.216 0 0.423-0.086 0.576-0.239s0.239-0.36 0.239-0.576v-5.37c0-0.107-0.021-0.213-0.062-0.312s-0.101-0.189-0.177-0.264c-0.076-0.076-0.166-0.136-0.264-0.177s-0.205-0.062-0.312-0.062h-0.87z"></path>
<path fill="#384685" style="fill: var(--color1, #384685)" d="M11 25h-9.5v-6h9.5v6zM2.5 24h7.5v-4h-7.5v4z"></path>
<path fill="#384685" style="fill: var(--color1, #384685)" d="M11 24h-1v3.5h1v-3.5z"></path>
<path fill="#384685" style="fill: var(--color1, #384685)" d="M2.5 24h-1v3.5h1v-3.5z"></path>
<path fill="#384685" style="fill: var(--color1, #384685)" d="M25.5 27.5h-8.5c-0.398 0-0.779-0.158-1.061-0.439s-0.439-0.663-0.439-1.061v-3h11.5v3c0 0.398-0.158 0.779-0.439 1.061s-0.663 0.439-1.061 0.439zM16.5 24v2c0 0.133 0.053 0.26 0.146 0.354s0.221 0.146 0.354 0.146h8.5c0.133 0 0.26-0.053 0.354-0.146s0.146-0.221 0.146-0.354v-2h-9.5z"></path>
<path fill="#384685" style="fill: var(--color1, #384685)" d="M27 24h-11.5v-1.5c0-0.663 0.263-1.299 0.732-1.768s1.105-0.732 1.768-0.732h6.5c0.663 0 1.299 0.263 1.768 0.732s0.732 1.105 0.732 1.768v1.5zM16.5 23h9.5v-0.5c0-0.398-0.158-0.779-0.439-1.061s-0.663-0.439-1.061-0.439h-6.5c-0.398 0-0.779 0.158-1.061 0.439s-0.439 0.663-0.439 1.061v0.5z"></path>
<path fill="#384685" style="fill: var(--color1, #384685)" d="M27 22.5h-1c0-0.398-0.158-0.779-0.439-1.061s-0.663-0.439-1.061-0.439h-6.5c-0.398 0-0.779 0.158-1.061 0.439s-0.439 0.663-0.439 1.061h-1v-2.185c-0-0.182-0.062-0.359-0.174-0.502s-0.269-0.245-0.446-0.288l-0.38-0.090v-3.935c0-0.928 0.369-1.819 1.025-2.475s1.547-1.025 2.475-1.025h6.5c0.928 0 1.819 0.369 2.475 1.025s1.025 1.547 1.025 2.475v3.935l-0.38 0.090c-0.177 0.044-0.334 0.145-0.446 0.288s-0.174 0.32-0.174 0.502v2.185zM18 20h6.5c0.541 0 1.067 0.175 1.5 0.5v-0.185c-0.001-0.336 0.092-0.667 0.268-0.953s0.43-0.517 0.732-0.667v-3.195c0-0.663-0.263-1.299-0.732-1.768s-1.105-0.732-1.768-0.732h-6.5c-0.663 0-1.299 0.263-1.768 0.732s-0.732 1.105-0.732 1.768v3.195c0.301 0.15 0.555 0.381 0.732 0.667s0.27 0.617 0.268 0.953v0.185c0.433-0.325 0.959-0.5 1.5-0.5z"></path>
<path fill="#384685" style="fill: var(--color1, #384685)" d="M7.5 21.5h-2.5v1h2.5v-1z"></path>
<path fill="#384685" style="fill: var(--color1, #384685)" d="M7.875 20h-3.25l-1.29-4.5h5.83l-1.29 4.5zM5.375 19h1.75l0.71-2.5h-3.17l0.71 2.5z"></path>
<path fill="#384685" style="fill: var(--color1, #384685)" d="M6.25 16.5c-0.128-0.001-0.255-0.014-0.38-0.040-0.937-0.16-1.788-0.644-2.404-1.368s-0.958-1.642-0.966-2.592v-0.5h0.5c0.93-0.005 1.833 0.317 2.55 0.91l0.185 0.145v0.235c-0.003 0.609 0.176 1.204 0.515 1.71 0.345-0.502 0.531-1.096 0.535-1.705v-0.235l0.185-0.145c0.711-0.59 1.606-0.914 2.53-0.915h0.5v0.5c0.004 0.967-0.341 1.904-0.971 2.638s-1.503 1.218-2.459 1.362c-0.106 0.011-0.214 0.011-0.32 0zM7.775 13.525c-0.037 0.599-0.208 1.181-0.5 1.705 0.441-0.202 0.827-0.508 1.124-0.892s0.496-0.834 0.581-1.313c-0.434 0.076-0.846 0.248-1.205 0.505v-0.005zM3.53 13.025c0.090 0.476 0.292 0.924 0.588 1.307s0.679 0.691 1.117 0.898c-0.291-0.524-0.462-1.107-0.5-1.705-0.36-0.253-0.771-0.422-1.205-0.495v-0.005z"></path>
<path fill="#384685" style="fill: var(--color1, #384685)" d="M6.25 16.455l-0.355-0.35c-0.085-0.090-0.17-0.18-0.25-0.275-0.642-0.775-0.972-1.761-0.925-2.766s0.465-1.957 1.175-2.669l0.355-0.35 0.355 0.35c0.376 0.374 0.674 0.819 0.877 1.309s0.306 1.016 0.303 1.546v0.025c-0.003 0.928-0.328 1.826-0.92 2.54-0.090 0.11-0.175 0.2-0.26 0.29l-0.355 0.35zM6.25 11.525c-0.348 0.508-0.535 1.109-0.535 1.725s0.186 1.217 0.535 1.725c0.345-0.502 0.531-1.096 0.535-1.705v0c0.007-0.623-0.18-1.233-0.535-1.745z"></path>
<path fill="#384685" style="fill: var(--color1, #384685)" d="M13 10h-1v12h1v-12z"></path>
<path fill="#384685" style="fill: var(--color1, #384685)" d="M16.55 11h-8.1l0.595-6.5h6.91l0.595 6.5zM9.55 10h5.9l-0.405-4.5h-5.090l-0.405 4.5z"></path>
</symbol>
<symbol id="icon-kithen" viewBox="0 0 32 32">
<path fill="#384685" style="fill: var(--color1, #384685)" d="M28.5 29h-25v-13.5h25v13.5zM4.5 28h23v-11.5h-23v11.5z"></path>
<path fill="#384685" style="fill: var(--color1, #384685)" d="M26.5 8h-9v-1.81l2-1v-2.19h5v2.19l2 1v1.81zM18.5 7h7v-0.19l-2-1v-1.81h-3v1.81l-2 1v0.19z"></path>
<path fill="#384685" style="fill: var(--color1, #384685)" d="M26.5 26.5h-9v-6.5h9v6.5zM18.5 25.5h7v-4.5h-7v4.5z"></path>
<path fill="#384685" style="fill: var(--color1, #384685)" d="M22.25 19c0.414 0 0.75-0.336 0.75-0.75s-0.336-0.75-0.75-0.75c-0.414 0-0.75 0.336-0.75 0.75s0.336 0.75 0.75 0.75z"></path>
<path fill="#384685" style="fill: var(--color1, #384685)" d="M24.75 19c0.414 0 0.75-0.336 0.75-0.75s-0.336-0.75-0.75-0.75c-0.414 0-0.75 0.336-0.75 0.75s0.336 0.75 0.75 0.75z"></path>
<path fill="#384685" style="fill: var(--color1, #384685)" d="M20.5 16.5h-1v-2.5h2v1h-1v1.5z"></path>
<path fill="#384685" style="fill: var(--color1, #384685)" d="M24.5 16.5h-1v-1.5h-1v-1h2v2.5z"></path>
<path fill="#384685" style="fill: var(--color1, #384685)" d="M16 27h-10.5v-9h10.5v9zM6.5 26h8.5v-7h-8.5v7z"></path>
<path fill="#384685" style="fill: var(--color1, #384685)" d="M16 22h-10.5v1h10.5v-1z"></path>
<path fill="#384685" style="fill: var(--color1, #384685)" d="M11.5 20h-2v1h2v-1z"></path>
<path fill="#384685" style="fill: var(--color1, #384685)" d="M11.5 24h-2v1h2v-1z"></path>
<path fill="#384685" style="fill: var(--color1, #384685)" d="M23 21.5h-2v1h2v-1z"></path>
<path fill="#384685" style="fill: var(--color1, #384685)" d="M15 4.5h-3.5v1h3.5v-1z"></path>
<path fill="#384685" style="fill: var(--color1, #384685)" d="M12.5 4.5h-6.5v1h6.5v-1z"></path>
<path fill="#384685" style="fill: var(--color1, #384685)" d="M7 4.5h-2.5v1h2.5v-1z"></path>
<path fill="#384685" style="fill: var(--color1, #384685)" d="M7 3.5h-1v7.5h1v-7.5z"></path>
<path fill="#384685" style="fill: var(--color1, #384685)" d="M12.5 3.5h-1v5h1v-5z"></path>
<path fill="#384685" style="fill: var(--color1, #384685)" d="M6.5 13c-0.297 0-0.587-0.088-0.833-0.253s-0.439-0.399-0.552-0.673-0.143-0.576-0.085-0.867c0.058-0.291 0.201-0.558 0.411-0.768s0.477-0.353 0.768-0.411c0.291-0.058 0.593-0.028 0.867 0.085s0.508 0.306 0.673 0.553 0.253 0.537 0.253 0.833c0 0.398-0.158 0.779-0.439 1.061s-0.663 0.439-1.061 0.439zM6.5 11c-0.099 0-0.196 0.029-0.278 0.084s-0.146 0.133-0.184 0.224c-0.038 0.091-0.048 0.192-0.028 0.289s0.067 0.186 0.137 0.256c0.070 0.070 0.159 0.117 0.256 0.137s0.197 0.009 0.289-0.028c0.091-0.038 0.169-0.102 0.224-0.184s0.084-0.179 0.084-0.278c0-0.133-0.053-0.26-0.146-0.354s-0.221-0.146-0.354-0.146z"></path>
<path fill="#384685" style="fill: var(--color1, #384685)" d="M12 13.5c-0.593 0-1.173-0.176-1.667-0.506s-0.878-0.798-1.105-1.346-0.286-1.151-0.171-1.733c0.116-0.582 0.402-1.116 0.821-1.536s0.954-0.705 1.536-0.821c0.582-0.116 1.185-0.056 1.733 0.171s1.017 0.612 1.346 1.105c0.33 0.493 0.506 1.073 0.506 1.667 0 0.796-0.316 1.559-0.879 2.121s-1.326 0.879-2.121 0.879zM12 8.5c-0.396 0-0.782 0.117-1.111 0.337s-0.585 0.532-0.737 0.898-0.191 0.768-0.114 1.156c0.077 0.388 0.268 0.744 0.547 1.024s0.636 0.47 1.024 0.547c0.388 0.077 0.79 0.038 1.156-0.114s0.678-0.408 0.898-0.737c0.22-0.329 0.337-0.716 0.337-1.111 0-0.53-0.211-1.039-0.586-1.414s-0.884-0.586-1.414-0.586z"></path>
<path fill="#384685" style="fill: var(--color1, #384685)" d="M29 15.5h-26v1h26v-1z"></path>
</symbol>
<symbol id="icon-like-full" viewBox="0 0 38 32">
<path fill="#e13b3f" style="fill: var(--color7, #e13b3f)" d="M18.759 32c-0.354 0.007-0.701-0.136-0.995-0.412l-14.862-14.754c-3.867-3.847-3.867-10.103 0-13.965 2.077-1.94 4.528-2.942 7.023-2.87 2.496-0.066 4.947 0.943 7.023 2.891l1.812 1.794 1.812-1.794c3.872-3.847 10.173-3.847 14.045 0s3.872 10.097 0 13.965l-14.857 14.733c-0.296 0.276-0.645 0.419-1 0.412zM9.924 2.793c-1.787-0.039-3.54 0.692-5.022 2.095-2.772 2.751-2.772 7.227 0 9.978l-3.799-4.383 4.966-8.276 7.724 0.586 4.971 5.299 6.616-6.437 7.724 2.759 3.31 6.621-3.794 3.817c2.767-2.751 2.767-7.227 0-9.978s-7.276-2.779-10.054 0.014l-2.807 2.793c-0.297 0.268-0.642 0.411-0.995 0.411s-0.699-0.143-0.995-0.411l-2.837-2.793c-1.478-1.398-3.225-2.129-5.007-2.095z"></path>
</symbol>
<symbol id="icon-guarantees" viewBox="0 0 33 32">
<path fill="#384685" style="fill: var(--color1, #384685)" d="M32.697 15.719l-2.232-2.931 0.742-3.607c0.043-0.205-0.058-0.414-0.244-0.508l-3.285-1.668-0.897-3.573c-0.051-0.203-0.231-0.346-0.44-0.35l-3.682-0.083-2.36-2.83c-0.134-0.162-0.361-0.212-0.549-0.126l-3.354 1.529-3.353-1.531c-0.188-0.086-0.415-0.035-0.549 0.126l-2.359 2.83-3.682 0.082c-0.209 0.005-0.389 0.147-0.44 0.35l-0.897 3.573-3.285 1.667c-0.187 0.094-0.287 0.303-0.245 0.506l0.742 3.61-2.232 2.933c-0.126 0.166-0.126 0.397 0 0.562l2.232 2.931-0.743 3.607c-0.043 0.205 0.058 0.414 0.244 0.508l3.285 1.667 0.897 3.573c0.051 0.203 0.231 0.346 0.44 0.35l3.682 0.083 2.36 2.831c0.090 0.109 0.222 0.168 0.356 0.168 0.065 0 0.131-0.014 0.193-0.042l3.354-1.53 3.353 1.53c0.189 0.087 0.415 0.036 0.549-0.126l2.359-2.83 3.682-0.080c0.209-0.006 0.389-0.148 0.44-0.351l0.897-3.573 3.286-1.668c0.186-0.094 0.287-0.303 0.244-0.506l-0.742-3.61 2.233-2.932c0.126-0.166 0.126-0.397-0.001-0.562l0-0zM29.598 18.819c-0.081 0.106-0.112 0.243-0.085 0.374l0.713 3.469-3.159 1.603c-0.12 0.060-0.207 0.17-0.24 0.3l-0.862 3.434-3.539 0.078c-0.134 0.003-0.26 0.065-0.346 0.168l-2.268 2.72-3.223-1.471c-0.122-0.054-0.263-0.054-0.385 0l-3.225 1.471-2.268-2.722c-0.086-0.103-0.212-0.164-0.346-0.166l-3.539-0.080-0.862-3.435c-0.033-0.13-0.121-0.24-0.24-0.3l-3.158-1.602 0.713-3.467c0.027-0.131-0.004-0.269-0.085-0.375l-2.145-2.818 2.145-2.82c0.081-0.106 0.112-0.243 0.085-0.374l-0.713-3.469 3.158-1.602c0.12-0.060 0.208-0.17 0.241-0.3l0.862-3.435 3.539-0.078c0.134-0.003 0.261-0.065 0.346-0.168l2.267-2.72 3.224 1.472c0.122 0.054 0.263 0.054 0.385 0l3.224-1.471 2.268 2.72c0.086 0.103 0.212 0.164 0.346 0.166l3.539 0.079 0.862 3.436c0.033 0.13 0.121 0.24 0.24 0.3l3.158 1.603-0.713 3.467c-0.027 0.131 0.004 0.269 0.085 0.375l2.145 2.818-2.145 2.819z"></path>
<path fill="#384685" style="fill: var(--color1, #384685)" d="M16.097 4.75c-6.203 0-11.249 5.047-11.249 11.25s5.046 11.25 11.249 11.25c6.203 0 11.249-5.047 11.249-11.25s-5.046-11.25-11.249-11.25zM16.097 26.321c-5.691 0-10.321-4.63-10.321-10.321s4.63-10.321 10.321-10.321c5.691 0 10.321 4.63 10.321 10.321s-4.63 10.321-10.321 10.321z"></path>
<path fill="#384685" style="fill: var(--color1, #384685)" d="M18.919 12.663l0.236-2.048c0.043-0.375-0.007-0.757-0.144-1.102-0.656-1.65-1.761-1.893-2.341-1.85-0.303 0.008-0.591 0.144-0.789 0.374-0.198 0.229-0.291 0.533-0.255 0.832l0.188 1.619c0.031 0.264-0.019 0.528-0.137 0.75l-1.646 2.865c-0.088 0.166-0.219 0.307-0.355 0.394l-0.087 0.049c-0.069-0.169-0.235-0.289-0.428-0.289h-3.293c-0.256 0-0.464 0.209-0.464 0.465v6.394c0 0.256 0.208 0.465 0.464 0.465h3.293c0.251 0 0.452-0.2 0.461-0.449l0.252 0.148c0.556 0.33 1.193 0.504 1.841 0.504l5.241-0.001c0.015 0.001 0.031 0.001 0.046 0.001 0.779 0 1.437-0.577 1.54-1.359 0.024-0.18 0.017-0.357-0.017-0.527 0.523-0.195 0.926-0.666 1.004-1.258 0.044-0.333-0.024-0.665-0.178-0.949 0.092-0.059 0.178-0.128 0.257-0.206 0.296-0.294 0.46-0.688 0.46-1.106 0-0.427-0.183-0.805-0.465-1.089 0.069-0.070 0.153-0.124 0.208-0.207 0.24-0.364 0.316-0.801 0.214-1.233-0.164-0.698-0.786-1.185-1.513-1.185l-3.59-0zM12.696 20.65h-2.365v-5.465h2.365v5.465zM23.118 14.062c0.042 0.18 0.012 0.361-0.085 0.509-0.091 0.138-0.235 0.231-0.394 0.265h-3.313c-0.256 0-0.464 0.209-0.464 0.465s0.208 0.465 0.464 0.465h3.314c0.288 0.062 0.497 0.314 0.497 0.613 0 0.169-0.066 0.329-0.186 0.448-0.119 0.118-0.277 0.182-0.444 0.182l-3.39-0c-0.256 0-0.464 0.208-0.464 0.465s0.208 0.465 0.464 0.465h3.219c0.186 0.133 0.301 0.35 0.271 0.581-0.046 0.343-0.356 0.587-0.705 0.543-0.007-0.001-0.013 0.004-0.020 0.004-0.014-0.001-0.025-0.008-0.039-0.008l-2.954-0.007c-0.256 0-0.463 0.207-0.464 0.463s0.207 0.465 0.463 0.466l2.685 0.006c0.040 0.099 0.063 0.205 0.048 0.318-0.043 0.323-0.319 0.608-0.652 0.551h-5.255c-0.482 0-0.955-0.129-1.369-0.374l-0.478-0.281c-0.073-0.043-0.178-0.062-0.243-0.067v-4.601c0.071-0.004 0.141-0.019 0.203-0.053l0.326-0.183c0.294-0.187 0.534-0.449 0.69-0.742l1.646-2.865c0.215-0.402 0.3-0.854 0.247-1.306l-0.188-1.619c-0.007-0.058 0.019-0.099 0.036-0.117 0.016-0.019 0.053-0.052 0.113-0.054 0.637 0.005 1.111 0.409 1.452 1.266 0.082 0.204 0.111 0.432 0.085 0.655l-0.285 2.503c-0.035 0.138-0.003 0.288 0.085 0.4s0.225 0.18 0.368 0.18h4.107c0.289-0 0.546 0.197 0.61 0.469v-0z"></path>
</symbol>
<symbol id="icon-price" viewBox="0 0 32 32">
<path fill="#384685" style="fill: var(--color1, #384685)" d="M8.77 23.23c-0.347-0.347-0.347-0.91 0-1.257l0.873-0.872c-0.374-0.55-0.621-1.176-0.724-1.832l-0.088-0.6h0c-0.072-0.486 0.264-0.937 0.75-1.009s0.938 0.264 1.009 0.75l0.088 0.6c0.156 0.903 0.731 1.679 1.55 2.091 0.598 0.291 1.161 0.284 1.546-0.017 0.418-0.328 0.552-0.944 0.357-1.65l-0.948-3.421c-0.387-1.401-0.014-2.751 0.975-3.524 0.927-0.725 2.204-0.805 3.417-0.216v0c0.195 0.096 0.383 0.208 0.561 0.333l0.863-0.863c0.348-0.346 0.909-0.345 1.255 0.002s0.347 0.908 0.002 1.255l-0.875 0.875c0.374 0.549 0.623 1.174 0.727 1.83l0.088 0.6c0.071 0.485-0.265 0.936-0.75 1.008s-0.937-0.264-1.009-0.749l-0.088-0.6c-0.156-0.903-0.731-1.679-1.55-2.091-0.598-0.291-1.161-0.284-1.546 0.017-0.419 0.327-0.552 0.944-0.357 1.649l0.948 3.421c0.387 1.401 0.014 2.751-0.975 3.524-0.927 0.724-2.204 0.805-3.417 0.216v0c-0.196-0.096-0.384-0.207-0.563-0.332l-0.861 0.861c-0.347 0.347-0.91 0.347-1.257 0h-0zM0.694 20.545c-0.444-0.445-0.694-1.049-0.694-1.679s0.25-1.233 0.694-1.679l13.912-13.916c0.682-0.664 1.44-1.247 2.257-1.736 4.043-2.482 8.82-1.92 12.171 1.431s3.912 8.128 1.431 12.17c-0.489 0.817-1.072 1.575-1.737 2.257l-13.916 13.912c-0.446 0.444-1.049 0.694-1.679 0.694s-1.233-0.25-1.679-0.694l-10.761-10.76zM1.951 19.289l10.761 10.761c0.233 0.233 0.611 0.233 0.844 0l13.916-13.912c0.566-0.584 1.062-1.232 1.478-1.931 2.474-4.030 0.914-7.897-1.173-9.984s-5.954-3.647-9.984-1.173c-0.698 0.417-1.346 0.913-1.931 1.478l-13.912 13.916c-0.233 0.233-0.233 0.611 0 0.844l0 0zM21.527 10.473c-0.562-0.562-0.877-1.323-0.877-2.117s0.316-1.556 0.877-2.118 1.323-0.877 2.117-0.877c0.794 0 1.556 0.315 2.118 0.877s0.877 1.323 0.877 2.118c0 0.794-0.315 1.556-0.877 2.117s-1.324 0.876-2.118 0.876-1.555-0.315-2.117-0.876zM22.533 9.468c0.295 0.295 0.695 0.461 1.112 0.461s0.817-0.166 1.112-0.461c0.295-0.295 0.461-0.695 0.461-1.112s-0.166-0.817-0.461-1.112c-0.295-0.295-0.695-0.461-1.112-0.461s-0.817 0.166-1.112 0.461c-0.294 0.295-0.46 0.695-0.46 1.112s0.166 0.817 0.46 1.112v-0z"></path>
</symbol>
<symbol id="icon-delivery" viewBox="0 0 40 32">
<path fill="#384685" style="fill: var(--color1, #384685)" d="M2.813 28.853h1.635c0.363 1.492 1.967 2.625 3.887 2.625s3.524-1.127 3.887-2.625h14.545c0.363 1.492 1.967 2.625 3.887 2.625s3.524-1.127 3.887-2.625h0.6c2.015 0 3.658-1.355 3.658-3.016v-1.844c0-0.515-0.166-1.010-0.466-1.453-0.024-0.046-0.055-0.085-0.087-0.124-0.032-0.046-0.063-0.091-0.095-0.137l-3.856-4.593c-0.688-0.814-1.809-1.303-3.010-1.303h-7.19v-3.974c0-1.277-1.264-2.319-2.813-2.319l-18.48 0c-1.548-0.006-2.805 1.030-2.805 2.306v14.137c0 1.277 1.264 2.319 2.813 2.319l0-0zM8.335 30.176c-1.319 0-2.386-0.88-2.386-1.968s1.067-1.968 2.386-1.968c1.311 0 2.378 0.88 2.386 1.961v0.007c0 1.081-1.075 1.968-2.386 1.968v0zM30.647 30.176c-1.311 0-2.386-0.88-2.386-1.968s1.067-1.968 2.386-1.968c1.311 0 2.378 0.88 2.386 1.961v0.013c0 1.075-1.067 1.961-2.386 1.961v0zM32.993 18.423l3.097 3.694h-5.001v-4.43h0.197c0.68-0 1.319 0.273 1.707 0.736zM29.509 17.687v5.081c0 0.358 0.355 0.651 0.79 0.651h6.795c0.079 0.182 0.126 0.378 0.126 0.573v1.844c0 0.945-0.932 1.713-2.078 1.713h-0.6c-0.371-1.492-1.967-2.612-3.887-2.612s-3.516 1.127-3.887 2.612h-2.82c0.087-0.202 0.142-0.417 0.142-0.645l0.001-9.218h5.42zM1.58 12.397c0-0.56 0.553-1.010 1.224-1.010h18.472c0.68 0 1.232 0.456 1.232 1.016v14.502c0 0.358-0.348 0.645-0.782 0.645h-9.505c-0.371-1.492-1.967-2.612-3.887-2.612s-3.516 1.127-3.887 2.612h-1.635c-0.679 0-1.233-0.456-1.233-1.016l0.001-14.136z"></path>
<path fill="#384685" style="fill: var(--color1, #384685)" d="M31.99 0c-4.14 0-7.514 2.775-7.514 6.196s3.366 6.196 7.514 6.196c4.14 0 7.514-2.775 7.514-6.196s-3.366-6.196-7.514-6.196zM31.99 11.081c-3.271 0-5.933-2.195-5.933-4.892s2.662-4.893 5.933-4.893c3.271 0 5.933 2.202 5.933 4.899s-2.662 4.886-5.933 4.886z"></path>
<path fill="#384685" style="fill: var(--color1, #384685)" d="M34.171 5.544h-1.382v-1.824c0-0.358-0.355-0.651-0.79-0.651s-0.79 0.293-0.79 0.651v2.475c0 0.358 0.355 0.651 0.79 0.651h2.173c0.434 0 0.79-0.293 0.79-0.651s-0.356-0.651-0.79-0.651z"></path>
</symbol>
<symbol id="icon-cart" viewBox="0 0 32 32">
<path d="M24.573 21.968h-10.352c-0.756 0.005-1.494-0.238-2.103-0.692s-1.055-1.096-1.273-1.829l-4.966-16.269c-0.084-0.275-0.252-0.515-0.481-0.685s-0.506-0.261-0.79-0.259h-3.5c-0.145 0-0.289-0.028-0.423-0.084s-0.256-0.138-0.359-0.241c-0.207-0.209-0.324-0.493-0.325-0.789s0.115-0.581 0.322-0.79c0.207-0.21 0.487-0.328 0.78-0.329h3.5c0.757-0.006 1.496 0.236 2.105 0.691s1.056 1.097 1.274 1.83l1.015 3.327h19.443c0.587 0.001 1.165 0.149 1.681 0.432s0.955 0.691 1.276 1.188c0.321 0.497 0.515 1.067 0.565 1.659s-0.048 1.187-0.283 1.731l-3.889 8.97c-0.275 0.633-0.725 1.173-1.296 1.552s-1.24 0.584-1.923 0.587zM9.687 8.082l3.267 10.709c0.083 0.275 0.251 0.515 0.479 0.686s0.505 0.262 0.789 0.262h10.352c0.256 0.001 0.507-0.072 0.723-0.212s0.387-0.339 0.494-0.575l3.889-8.97c0.089-0.204 0.125-0.428 0.107-0.65s-0.091-0.437-0.212-0.623c-0.121-0.187-0.286-0.34-0.48-0.446s-0.411-0.161-0.632-0.161l-18.775-0.020z"></path>
<path d="M14.303 32c-0.703 0-1.39-0.211-1.975-0.606s-1.040-0.956-1.309-1.613c-0.269-0.657-0.339-1.379-0.202-2.077s0.476-1.338 0.973-1.84c0.497-0.503 1.13-0.845 1.82-0.984s1.404-0.067 2.054 0.205c0.649 0.272 1.205 0.733 1.595 1.324s0.599 1.286 0.599 1.997c-0.001 0.953-0.376 1.867-1.042 2.541s-1.57 1.053-2.512 1.054zM14.303 27.045c-0.266 0-0.526 0.080-0.748 0.229s-0.394 0.362-0.495 0.611c-0.102 0.249-0.128 0.522-0.077 0.786s0.18 0.506 0.368 0.697c0.188 0.19 0.428 0.32 0.689 0.372s0.532 0.026 0.777-0.077c0.246-0.103 0.456-0.277 0.604-0.501s0.227-0.487 0.227-0.756c-0.001-0.361-0.143-0.706-0.395-0.961s-0.594-0.399-0.95-0.4z"></path>
<path d="M24.285 32c-0.703 0-1.39-0.211-1.975-0.606s-1.040-0.956-1.309-1.613c-0.269-0.657-0.339-1.379-0.202-2.077s0.476-1.338 0.973-1.84c0.497-0.503 1.13-0.845 1.82-0.984s1.404-0.067 2.054 0.205c0.649 0.272 1.205 0.733 1.595 1.324s0.599 1.286 0.599 1.997c-0.001 0.953-0.376 1.867-1.042 2.541s-1.57 1.053-2.512 1.054zM24.285 27.045c-0.266 0-0.526 0.080-0.747 0.229s-0.394 0.362-0.496 0.611c-0.102 0.249-0.128 0.522-0.077 0.786s0.18 0.506 0.368 0.697 0.428 0.32 0.689 0.372c0.261 0.053 0.531 0.026 0.777-0.077s0.456-0.277 0.604-0.501c0.148-0.224 0.227-0.487 0.227-0.756-0.001-0.361-0.143-0.706-0.395-0.961s-0.594-0.399-0.95-0.4z"></path>
</symbol>
<symbol id="icon-like" viewBox="0 0 37 32">
<path d="M18.526 32c-0.349 0.007-0.692-0.136-0.983-0.412l-14.678-14.754c-3.819-3.847-3.819-10.103 0-13.965 2.051-1.94 4.472-2.942 6.936-2.87 2.466-0.066 4.886 0.943 6.936 2.891l1.789 1.794 1.789-1.794c3.824-3.847 10.047-3.847 13.871 0s3.824 10.096 0 13.965l-14.673 14.733c-0.293 0.276-0.637 0.419-0.988 0.412zM9.801 2.793c-1.765-0.039-3.496 0.692-4.96 2.095-2.738 2.751-2.738 7.227 0 9.978l13.685 13.762 13.69-13.776c2.733-2.751 2.733-7.227 0-9.978s-7.187-2.779-9.929 0.014l-2.772 2.793c-0.293 0.268-0.634 0.411-0.983 0.411s-0.69-0.143-0.983-0.411l-2.802-2.793c-1.46-1.398-3.185-2.129-4.945-2.095z"></path>
</symbol>
<symbol id="icon-user" viewBox="0 0 29 32">
<path d="M27.156 32h-25.701c-0.385 0-0.754-0.152-1.027-0.423s-0.427-0.639-0.428-1.023v-5.253c0-2.982 1.188-5.841 3.302-7.95s4.981-3.293 7.971-3.293h6.087c2.99 0 5.857 1.184 7.971 3.293s3.302 4.968 3.302 7.95v5.253c-0.001 0.192-0.039 0.382-0.114 0.559s-0.184 0.337-0.321 0.472c-0.137 0.134-0.3 0.241-0.478 0.312s-0.37 0.107-0.562 0.104zM2.91 29.128h22.811v-3.828c-0.001-2.212-0.883-4.333-2.45-5.897s-3.694-2.445-5.912-2.447h-6.087c-2.218 0.003-4.344 0.883-5.912 2.447s-2.449 3.685-2.45 5.897v3.828z"></path>
<path d="M14.398 16.301c-1.625 0.005-3.214-0.472-4.567-1.369s-2.407-2.176-3.030-3.672c-0.623-1.497-0.786-3.144-0.468-4.733s1.101-3.048 2.252-4.192c1.151-1.144 2.616-1.921 4.21-2.233s3.246-0.144 4.744 0.482c1.499 0.626 2.777 1.682 3.673 3.034s1.369 2.939 1.358 4.559c-0.013 2.155-0.88 4.218-2.41 5.74s-3.601 2.379-5.762 2.386zM14.398 2.903c-1.041 0-2.058 0.308-2.924 0.884s-1.541 1.396-1.94 2.354c-0.399 0.959-0.505 2.014-0.303 3.032s0.701 1.955 1.436 2.69c0.735 0.736 1.671 1.237 2.692 1.442s2.079 0.104 3.042-0.291c0.963-0.394 1.787-1.065 2.368-1.926s0.893-1.875 0.898-2.913c0.002-0.691-0.133-1.376-0.396-2.016s-0.651-1.221-1.141-1.711c-0.489-0.49-1.070-0.879-1.711-1.144s-1.326-0.403-2.020-0.403z"></path>
</symbol>
<symbol id="icon-search" viewBox="0 0 32 32">
<path fill="#a8d1e7" style="fill: var(--color8, #a8d1e7)" d="M28.899 29.901c-0.255 0-0.51-0.097-0.705-0.292l-11.739-11.742c-0.389-0.389-0.389-1.020 0-1.41s1.020-0.389 1.409 0l11.739 11.742c0.389 0.389 0.389 1.020 0 1.409-0.195 0.195-0.45 0.292-0.705 0.292z"></path>
<path fill="#a8d1e7" style="fill: var(--color8, #a8d1e7)" d="M11.29 20.587c-2.38 0-4.762-0.907-6.574-2.719-3.625-3.626-3.625-9.525 0-13.151 1.756-1.756 4.090-2.724 6.574-2.724 2.485 0 4.819 0.968 6.575 2.724 3.625 3.626 3.625 9.525 0 13.151-1.812 1.813-4.193 2.719-6.575 2.719zM11.29 3.987c-1.95 0-3.785 0.76-5.165 2.14-2.847 2.849-2.847 7.483 0 10.332 2.848 2.849 7.484 2.847 10.33 0 2.847-2.848 2.847-7.483 0-10.332-1.38-1.38-3.214-2.14-5.166-2.14z"></path>
</symbol>
<symbol id="icon-phone" viewBox="0 0 34 32">
<path d="M21.719 32c2.592-0 4.911-0.87 6.704-2.663l2.619-2.619c1.306-1.307 1.306-3.433-0-4.739l-3.979-3.979c-0.681-0.681-1.621-1.035-2.584-0.975-0.961 0.062-1.85 0.534-2.438 1.296l-2.581 3.342c-1.877-1.008-3.63-2.32-5.216-3.906-1.578-1.578-2.885-3.321-3.891-5.186l3.351-2.588c0.762-0.588 1.235-1.477 1.296-2.437s-0.294-1.903-0.975-2.584l-3.979-3.979c-0.633-0.633-1.475-0.982-2.37-0.982s-1.737 0.349-2.369 0.982l-2.083 2.082c-0.215 0.183-0.394 0.346-0.56 0.512-4.851 4.85-2.942 13.535 4.641 21.118 4.78 4.78 9.996 7.306 14.414 7.306l0 0zM4.26 5.174c0.146-0.146 0.3-0.282 0.456-0.413 0.024-0.021 0.048-0.042 0.071-0.065l2.117-2.116c0.206-0.207 0.48-0.32 0.772-0.32s0.566 0.113 0.772 0.32l3.979 3.979c0.225 0.226 0.338 0.525 0.318 0.842s-0.171 0.599-0.423 0.794l-3.802 2.936c-0.598 0.462-0.786 1.284-0.447 1.955 1.144 2.269 2.683 4.378 4.572 6.267 1.898 1.898 4.018 3.442 6.302 4.588 0.67 0.336 1.491 0.148 1.952-0.448l2.929-3.793c0.195-0.252 0.477-0.402 0.794-0.422 0.319-0.023 0.617 0.093 0.842 0.318l3.979 3.979c0.426 0.426 0.425 1.119 0 1.545l-2.619 2.619c-3.911 3.91-11.281 2.002-17.924-4.642-6.642-6.643-8.55-14.014-4.641-17.924l-0 0z"></path>
</symbol>
<symbol id="icon-logo" viewBox="0 0 155 32">
<path fill="#fbd051" style="fill: var(--color5, #fbd051)" d="M16 0c8.837 0 16 7.163 16 16s-7.163 16-16 16c-8.837 0-16-7.163-16-16s7.163-16 16-16z"></path>
<path fill="#000" style="fill: var(--color9, #000)" d="M9.935 25.137h-2.505c-0.288 0-0.406-0.149-0.307-0.435l5.303-15.156h-3.363c-0.255 0-0.384-0.12-0.384-0.358v-1.942c0-0.255 0.128-0.383 0.384-0.383 4.625 0 9.25 0 13.875 0 0.256 0 0.383 0.128 0.383 0.383v1.942c0 0.238-0.128 0.358-0.383 0.358h-3.357l5.303 15.156c0.085 0.29-0.017 0.435-0.307 0.435h-2.505c-0.238 0-0.383-0.102-0.435-0.306l-1.252-3.859h-8.763l-1.252 3.859c-0.066 0.204-0.214 0.306-0.435 0.306zM26.927 12.515c1.567-0.613 3.288-0.92 5.162-0.92 1.771 0 3.194 0.468 4.266 1.405s1.61 2.333 1.61 4.19v2.811c0 1.652-0.528 2.972-1.584 3.961s-2.41 1.482-4.062 1.482c-0.937 0-1.84-0.187-2.709-0.562v4.727c0 0.255-0.128 0.383-0.383 0.383h-2.197c-0.255 0-0.383-0.128-0.383-0.383v-16.685c0-0.205 0.094-0.341 0.281-0.409zM32.063 22.838c1.925 0 2.887-0.937 2.887-2.811v-2.861c0-1.057-0.247-1.814-0.741-2.274s-1.227-0.69-2.198-0.69c-1.022 0-1.823 0.119-2.402 0.358v7.563c0.698 0.477 1.516 0.715 2.453 0.715zM51.686 25.137h-2.581c-0.221 0-0.375-0.077-0.46-0.23l-3.986-5.238-1.048 1.124v3.961c0 0.255-0.128 0.383-0.384 0.383h-2.121c-0.255 0-0.383-0.128-0.383-0.383v-12.469c0-0.255 0.128-0.384 0.383-0.384h2.121c0.255 0 0.384 0.128 0.384 0.384v4.931l4.574-5.11c0.102-0.136 0.255-0.204 0.46-0.204h2.581c0.17 0 0.277 0.043 0.319 0.128s0.013 0.195-0.089 0.332l-4.829 5.238 5.314 7.078c0.187 0.307 0.102 0.46-0.255 0.46zM64.282 20.283c0 1.584-0.528 2.841-1.584 3.769s-2.471 1.393-4.241 1.393c-1.772 0-3.186-0.464-4.242-1.393s-1.584-2.184-1.584-3.769v-3.424c0-1.601 0.528-2.879 1.584-3.833s2.47-1.431 4.242-1.431c1.771 0 3.185 0.477 4.241 1.431s1.584 2.232 1.584 3.833v3.424zM55.621 20.283c0 1.669 0.945 2.504 2.836 2.504 0.92 0 1.622-0.213 2.108-0.639s0.728-1.048 0.728-1.865v-3.424c0-0.835-0.247-1.478-0.74-1.93s-1.193-0.677-2.095-0.677c-0.92 0-1.623 0.222-2.108 0.664s-0.728 1.090-0.728 1.942v3.424zM70.235 25.137h-2.325c-0.239 0-0.358-0.128-0.358-0.383v-17.503c0-0.255 0.119-0.383 0.358-0.383h2.785c0.204 0 0.341 0.094 0.409 0.281l3.117 5.8c0.647 1.209 1.371 2.709 2.172 4.497h0.102c0.801-1.788 1.525-3.288 2.172-4.497l3.092-5.8c0.102-0.187 0.247-0.281 0.434-0.281h2.759c0.256 0 0.383 0.128 0.383 0.383v17.503c0 0.255-0.127 0.383-0.383 0.383h-2.325c-0.238 0-0.358-0.128-0.358-0.383v-5.136c0-2.010 0.068-4.684 0.204-8.023l-0.076-0.026c-0.511 1.107-1.277 2.683-2.3 4.727l-2.248 4.37c-0.085 0.188-0.23 0.281-0.435 0.281h-1.942c-0.205 0-0.349-0.094-0.434-0.281l-2.248-4.37c-1.022-2.044-1.788-3.619-2.3-4.727l-0.076 0.026c0.136 3.339 0.204 6.013 0.204 8.023v5.136c0 0.255-0.128 0.383-0.383 0.383zM99.773 16.834v2.58c0 0.239-0.129 0.358-0.384 0.358h-7.767v0.715c0 0.767 0.243 1.35 0.728 1.751s1.145 0.601 1.981 0.601c1.243 0 2.444-0.392 3.603-1.175 0.204-0.137 0.374-0.111 0.51 0.076l1.048 1.406c0.171 0.188 0.145 0.366-0.076 0.537-1.482 1.175-3.212 1.763-5.187 1.763-1.567 0-2.891-0.43-3.973-1.29s-1.622-2.091-1.622-3.692v-3.628c0-1.755 0.545-3.066 1.635-3.935s2.418-1.303 3.985-1.303c1.55 0 2.858 0.435 3.922 1.303s1.598 2.18 1.598 3.935zM96.885 16.808c0-0.886-0.247-1.542-0.741-1.968s-1.124-0.639-1.891-0.639c-1.754 0-2.631 0.869-2.631 2.607v0.664h5.264v-0.664zM105.291 13.18c0.887-0.426 1.874-0.639 2.965-0.639 1.618 0 2.93 0.456 3.934 1.367s1.508 2.201 1.508 3.871v2.274c0 1.789-0.55 3.134-1.648 4.037s-2.466 1.354-4.101 1.354c-1.584 0-2.917-0.456-3.998-1.367s-1.623-2.261-1.623-4.050v-7.716c0-1.567 0.515-2.802 1.546-3.705s2.253-1.491 3.667-1.763c2.028-0.358 3.313-0.673 3.858-0.946 0.239-0.103 0.409-0.059 0.511 0.128l0.945 1.609c0.103 0.239 0.059 0.409-0.128 0.511-0.596 0.34-1.976 0.758-4.139 1.251-0.478 0.119-0.878 0.239-1.201 0.358s-0.665 0.29-1.022 0.511c-0.359 0.222-0.627 0.511-0.805 0.869-0.18 0.358-0.269 0.783-0.269 1.277v0.767zM107.923 22.787c0.801 0 1.46-0.222 1.98-0.664s0.779-1.124 0.779-2.044v-2.249c0-1.84-0.903-2.76-2.709-2.76-1.005 0-1.899 0.205-2.683 0.613v4.369c0 0.937 0.248 1.627 0.742 2.070s1.124 0.664 1.89 0.664zM127.188 16.834v2.58c0 0.239-0.127 0.358-0.383 0.358h-7.767v0.715c0 0.767 0.243 1.35 0.728 1.751s1.145 0.601 1.981 0.601c1.243 0 2.444-0.392 3.602-1.175 0.204-0.137 0.375-0.111 0.511 0.076l1.048 1.406c0.171 0.188 0.145 0.366-0.076 0.537-1.483 1.175-3.212 1.763-5.187 1.763-1.567 0-2.891-0.43-3.973-1.29s-1.623-2.091-1.623-3.692v-3.628c0-1.755 0.546-3.066 1.635-3.935s2.419-1.303 3.986-1.303c1.55 0 2.858 0.435 3.923 1.303s1.596 2.18 1.596 3.935zM124.301 16.808c0-0.886-0.247-1.542-0.742-1.968-0.493-0.426-1.123-0.639-1.89-0.639-1.754 0-2.631 0.869-2.631 2.607v0.664h5.264v-0.664zM133.601 20.793c-0.323 1.619-0.817 2.755-1.482 3.411s-1.72 1.009-3.168 1.060c-0.239 0-0.358-0.128-0.358-0.383v-1.865c0-0.221 0.119-0.358 0.358-0.409 0.494-0.034 0.881-0.238 1.163-0.613s0.515-1.047 0.702-2.019c0.29-1.686 0.503-4.258 0.639-7.716 0.034-0.239 0.161-0.358 0.383-0.358h8.687c0.256 0 0.384 0.119 0.384 0.358v12.494c0 0.255-0.128 0.383-0.384 0.383h-2.197c-0.255 0-0.383-0.128-0.383-0.383v-10.246h-3.73c-0.085 2.436-0.29 4.531-0.614 6.285zM149.8 25.137h-5.289c-0.256 0-0.383-0.128-0.383-0.383v-12.494c0-0.239 0.127-0.358 0.383-0.358h2.197c0.255 0 0.383 0.119 0.383 0.358v3.935h2.708c1.567 0 2.832 0.4 3.795 1.201s1.443 1.908 1.443 3.322c0 1.516-0.464 2.632-1.393 3.347s-2.21 1.073-3.845 1.073zM147.092 18.622v4.062h2.197c1.84 0 2.759-0.673 2.759-2.018 0.017-0.698-0.204-1.214-0.664-1.546s-1.159-0.498-2.096-0.498h-2.197zM15.297 9.546l-2.807 8.639h7.025l-2.806-8.639h-1.412z"></path>
</symbol>
<symbol id="icon-geolocation" viewBox="0 0 32 32">
<path fill="#384685" style="fill: var(--color1, #384685)" d="M16 32c-0.318 0-0.618-0.152-0.807-0.409l-8.634-11.774c-1.674-2.283-2.559-4.986-2.559-7.817 0-6.617 5.383-12 12-12s12 5.383 12 12c0 2.831-0.885 5.534-2.559 7.817l-8.635 11.774c-0.189 0.257-0.488 0.409-0.807 0.409zM16 2c-5.514 0-10 4.486-10 10 0 2.402 0.751 4.697 2.172 6.634l7.828 10.675 7.829-10.675c1.421-1.937 2.171-4.232 2.171-6.634 0-5.514-4.486-10-10-10zM16 17c-2.757 0-5-2.243-5-5s2.243-5 5-5c2.757 0 5 2.243 5 5s-2.243 5-5 5zM16 9c-1.654 0-3 1.346-3 3s1.346 3 3 3c1.654 0 3-1.346 3-3s-1.346-3-3-3z"></path>
</symbol>
</defs>
</svg>
